<svg xmlns="http://www.w3.org/2000/svg" viewBox="0 0 440.14 483.96"><defs><style>.cls-1{fill:#94d6da;}.cls-2{fill:#2f4a4e;}.cls-3{fill:#506a6b;}.cls-4{fill:#3d813f;}.cls-5{fill:#6aa744;}.cls-6{fill:#a5cf4c;}.cls-7{fill:#ed1c24;}</style></defs><title>eyoc_2020_logo</title><g id="Layer_3" data-name="Layer 3"><path class="cls-1" d="M472.66,344.57s53.53-34.56,67.76-30.49c.61.17,3.46,2.82,12.88,8.36,4,2.34,20.78,2.25,20.78,2.25l86.29,44.95L710,382.54a157.87,157.87,0,1,0-291.44-37.91C420,350.18,472.66,344.57,472.66,344.57Z" transform="translate(-377.9 -148.33)"/></g><g id="Layer_8" data-name="Layer 8"><path class="cls-2" d="M641.6,615.08h-2.3a8.18,8.18,0,0,1,2.37-5.83,7.56,7.56,0,0,1,5.59-2.27,7.09,7.09,0,0,1,7.36,7.15,7.79,7.79,0,0,1-1,3.81,26.59,26.59,0,0,1-3.78,4.83l-5.93,6.09h11v2.3H638.73l9.12-9.54a28.43,28.43,0,0,0,3.62-4.41,6,6,0,0,0,.83-3,4.67,4.67,0,0,0-1.5-3.47,5.45,5.45,0,0,0-7.47.08A6.61,6.61,0,0,0,641.6,615.08Z" transform="translate(-377.9 -148.33)"/><path class="cls-2" d="M657.21,619.48a20.56,20.56,0,0,1,1-7.31,8.51,8.51,0,0,1,2.87-3.92,6.9,6.9,0,0,1,4.14-1.34,7.07,7.07,0,0,1,4.21,1.35,8.93,8.93,0,0,1,3,4,19.38,19.38,0,0,1,1.09,7.19,17.15,17.15,0,0,1-1.08,6.87,9,9,0,0,1-3,3.73,7.06,7.06,0,0,1-4.22,1.36,6.92,6.92,0,0,1-4.13-1.32,8.42,8.42,0,0,1-2.86-3.92A18.45,18.45,0,0,1,657.21,619.48Zm2.26,0a16.57,16.57,0,0,0,.73,5.82,6.61,6.61,0,0,0,2.14,2.85,4.69,4.69,0,0,0,5.95,0,6.38,6.38,0,0,0,2.09-3.14,16.84,16.84,0,0,0,.89-5.56,18.7,18.7,0,0,0-.79-5.9,7,7,0,0,0-2.19-3.37,4.73,4.73,0,0,0-6,0,6.52,6.52,0,0,0-2.12,3.14A19.39,19.39,0,0,0,659.47,619.53Z" transform="translate(-377.9 -148.33)"/><path class="cls-2" d="M678.44,615.08h-2.31a8.27,8.27,0,0,1,2.37-5.83,7.59,7.59,0,0,1,5.59-2.27,7.09,7.09,0,0,1,7.37,7.15,7.91,7.91,0,0,1-1,3.81,27.22,27.22,0,0,1-3.79,4.83l-5.93,6.09h11v2.3H675.57l9.12-9.54a29,29,0,0,0,3.62-4.41,6,6,0,0,0,.82-3,4.66,4.66,0,0,0-1.49-3.47,5.47,5.47,0,0,0-7.48.08A6.6,6.6,0,0,0,678.44,615.08Z" transform="translate(-377.9 -148.33)"/><path class="cls-2" d="M694.05,619.48a20.83,20.83,0,0,1,1-7.31,8.58,8.58,0,0,1,2.87-3.92,6.94,6.94,0,0,1,4.14-1.34,7.07,7.07,0,0,1,4.21,1.35,8.86,8.86,0,0,1,3,4,19.35,19.35,0,0,1,1.1,7.19,17.15,17.15,0,0,1-1.08,6.87,9.06,9.06,0,0,1-3,3.73,7.09,7.09,0,0,1-4.23,1.36,6.89,6.89,0,0,1-4.12-1.32,8.44,8.44,0,0,1-2.87-3.92A18.47,18.47,0,0,1,694.05,619.48Zm2.26,0a16.87,16.87,0,0,0,.72,5.82,6.69,6.69,0,0,0,2.14,2.85,4.69,4.69,0,0,0,6,0,6.38,6.38,0,0,0,2.09-3.14,16.84,16.84,0,0,0,.89-5.56,18.41,18.41,0,0,0-.79-5.9,6.91,6.91,0,0,0-2.19-3.37,4.72,4.72,0,0,0-6,0A6.46,6.46,0,0,0,697,613.4,19.75,19.75,0,0,0,696.31,619.53Z" transform="translate(-377.9 -148.33)"/><path class="cls-2" d="M507.53,477a1.38,1.38,0,0,1,1.58,1.53V480a1.54,1.54,0,0,1-.4,1.12,1.56,1.56,0,0,1-1.18.41h-37v31h29.88a1.68,1.68,0,0,1,1.14.37A1.48,1.48,0,0,1,502,514v1.49a1.53,1.53,0,0,1-.41,1.12,1.58,1.58,0,0,1-1.17.42H470.55v17h37.64a1.38,1.38,0,0,1,1.58,1.54v1.49a1.33,1.33,0,0,1-1.53,1.49h-41a1.21,1.21,0,0,1-1-.39,1.63,1.63,0,0,1-.31-1.06V478.45c0-.63.16-1,.47-1.22a2.12,2.12,0,0,1,1.06-.27Z" transform="translate(-377.9 -148.33)"/><path class="cls-2" d="M524.3,479a1.79,1.79,0,0,1-.38-1,.91.91,0,0,1,.42-.76,1.45,1.45,0,0,1,.91-.31c.33,0,.67,0,1-.05a5.91,5.91,0,0,1,1,0,2.64,2.64,0,0,1,1,.34,2.36,2.36,0,0,1,.85.89l1.66,2.74q4,6.8,8,13.51t8,13.46l8.48-14.29,8.49-14.26c.19-.33.37-.64.52-.93a2.83,2.83,0,0,1,.56-.75,2.42,2.42,0,0,1,.85-.5,4.72,4.72,0,0,1,1.47-.18H568a3.4,3.4,0,0,1,.82.08,1.35,1.35,0,0,1,.58.27.72.72,0,0,1,.22.6,1.76,1.76,0,0,1-.06.41,1.52,1.52,0,0,1-.27.54q-5.1,8.39-10.08,16.85t-10.13,16.85v24.57a1.34,1.34,0,0,1-1.49,1.53H546a1.33,1.33,0,0,1-1.49-1.53v-24.4Z" transform="translate(-377.9 -148.33)"/><path class="cls-2" d="M580.28,507.83a31.54,31.54,0,0,1,4.29-15.95,31.81,31.81,0,0,1,11.33-11.33,32.13,32.13,0,0,1,7.56-3.2,31.52,31.52,0,0,1,16.8,0,32.13,32.13,0,0,1,7.56,3.2,31.81,31.81,0,0,1,11.33,11.33,31.85,31.85,0,0,1,3.19,7.55,31.48,31.48,0,0,1,0,16.79,32.24,32.24,0,0,1-3.19,7.53,31.81,31.81,0,0,1-11.33,11.33,31.76,31.76,0,0,1-31.92,0,32.12,32.12,0,0,1-6.39-4.94,31.37,31.37,0,0,1-8.11-13.92A31.06,31.06,0,0,1,580.28,507.83Zm4.61,0A26.24,26.24,0,0,0,587,518.31a26.91,26.91,0,0,0,5.79,8.57,27.33,27.33,0,0,0,8.59,5.77,26.24,26.24,0,0,0,10.48,2.12,26.71,26.71,0,0,0,7.16-1,26,26,0,0,0,6.45-2.72,27.17,27.17,0,0,0,5.46-4.23,27.27,27.27,0,0,0,7-11.87,26.7,26.7,0,0,0-1.16-17.64,27.35,27.35,0,0,0-14.4-14.4,26.87,26.87,0,0,0-17.64-1.16,28,28,0,0,0-6.43,2.74,27.46,27.46,0,0,0-5.48,4.23,27.07,27.07,0,0,0-4.21,5.46,27.77,27.77,0,0,0-2.72,6.45A26.32,26.32,0,0,0,584.89,507.83Z" transform="translate(-377.9 -148.33)"/><path class="cls-2" d="M710.8,483a1.44,1.44,0,0,1,.66,1.16,1.61,1.61,0,0,1-.42.91,3.62,3.62,0,0,0-.28.4,8.22,8.22,0,0,1-.52.66,7.81,7.81,0,0,1-.65.64,1,1,0,0,1-.62.29h-.17a1.29,1.29,0,0,1-.33-.06,1.79,1.79,0,0,1-.5-.27,30,30,0,0,0-7.65-4.29,24.33,24.33,0,0,0-8.74-1.56,27.23,27.23,0,0,0-7.32,1,27.82,27.82,0,0,0-6.56,2.75,27,27,0,0,0-5.52,4.28,27.5,27.5,0,0,0-4.23,5.5,26.91,26.91,0,0,0-2.72,6.43,26.88,26.88,0,0,0,0,14.24,26.7,26.7,0,0,0,2.76,6.41,27.53,27.53,0,0,0,9.71,9.63,27.15,27.15,0,0,0,6.37,2.69,25.68,25.68,0,0,0,7,1,27.61,27.61,0,0,0,16.35-5.61l1-.58a1.73,1.73,0,0,1,.67-.2,1.14,1.14,0,0,1,.68.33,5,5,0,0,1,.77.81,4.81,4.81,0,0,1,.62,1,2.28,2.28,0,0,1,.25,1,1,1,0,0,1-.21.64,3.38,3.38,0,0,1-.53.56,32.53,32.53,0,0,1-9,5,32.13,32.13,0,0,1-22.87-.7,31.57,31.57,0,0,1-16.76-16.81,31.91,31.91,0,0,1-1.35-20.69,31.59,31.59,0,0,1,8.11-13.94,31.22,31.22,0,0,1,6.39-5,32.13,32.13,0,0,1,7.56-3.2,30.8,30.8,0,0,1,8.4-1.14A29.65,29.65,0,0,1,701.71,478,35.63,35.63,0,0,1,710.8,483Z" transform="translate(-377.9 -148.33)"/><path class="cls-3" d="M464,583a5.82,5.82,0,0,1,.5-.52,1,1,0,0,1,.68-.27,1.61,1.61,0,0,1,.44.12,1,1,0,0,1,.47.31,17.64,17.64,0,0,0,1.85,2.18,9.56,9.56,0,0,0,4.59,2.59,12.51,12.51,0,0,0,3.06.34,13.49,13.49,0,0,0,3.48-.43A8.46,8.46,0,0,0,481.9,586a6.52,6.52,0,0,0,1.94-2.31,7.16,7.16,0,0,0,.72-3.32,5.29,5.29,0,0,0-.6-2.58,6.68,6.68,0,0,0-1.63-2,12.05,12.05,0,0,0-2.41-1.5c-.92-.43-1.89-.85-2.92-1.27q-2.4-1-4.47-1.84a17.32,17.32,0,0,1-3.62-2.06,8.76,8.76,0,0,1-2.41-2.75,8,8,0,0,1-.87-3.91,9.46,9.46,0,0,1,.74-3.84,8.45,8.45,0,0,1,2.05-2.88,9.11,9.11,0,0,1,3.11-1.8,12,12,0,0,1,3.89-.62,12.43,12.43,0,0,1,5.27,1.17,11.69,11.69,0,0,1,2.25,1.42,11.45,11.45,0,0,1,1.89,1.92,1.2,1.2,0,0,1,.16.28.62.62,0,0,1,.05.3.43.43,0,0,1-.14.21l-.34.33-.42.36-.37.3a.59.59,0,0,1-.48.13.89.89,0,0,1-.38-.23,11.91,11.91,0,0,0-3.24-2.54,9,9,0,0,0-4.25-.94,8.54,8.54,0,0,0-2.93.48,7,7,0,0,0-2.27,1.33,5.89,5.89,0,0,0-1.46,2,6.28,6.28,0,0,0-.52,2.59,5,5,0,0,0,.76,2.83,7.18,7.18,0,0,0,2.12,2.05,19.64,19.64,0,0,0,3.25,1.65l4.12,1.68a34.4,34.4,0,0,1,3.59,1.72,12.33,12.33,0,0,1,2.76,2A8,8,0,0,1,486.6,577a8.26,8.26,0,0,1,.63,3.34,9.88,9.88,0,0,1-.92,4.36,9.06,9.06,0,0,1-2.48,3.16,10.79,10.79,0,0,1-3.7,1.94,15.43,15.43,0,0,1-4.52.64A14.63,14.63,0,0,1,469,589a13.41,13.41,0,0,1-5.15-4.84,1.74,1.74,0,0,1-.18-.31.9.9,0,0,1-.06-.34A.59.59,0,0,1,464,583Z" transform="translate(-377.9 -148.33)"/><path class="cls-3" d="M514.39,588.92a.8.8,0,0,1-.26.64,1.09,1.09,0,0,1-.72.23h-.77a.86.86,0,0,1-1-1v-4.17a7.51,7.51,0,0,1-1.27,2.39,8.13,8.13,0,0,1-2,1.76,9.15,9.15,0,0,1-2.53,1.1,11.33,11.33,0,0,1-7.51-.57,11.31,11.31,0,0,1-3.66-2.62,12.05,12.05,0,0,1-2.44-3.89,12.8,12.8,0,0,1-.89-4.77,12.94,12.94,0,0,1,.88-4.79,12.36,12.36,0,0,1,2.42-3.92,11.21,11.21,0,0,1,3.66-2.64,11.48,11.48,0,0,1,7.6-.56,9.77,9.77,0,0,1,2.58,1.16,8.12,8.12,0,0,1,2,1.76,6.59,6.59,0,0,1,1.17,2.24l.1-4.1a1.12,1.12,0,0,1,.24-.73.84.84,0,0,1,.69-.25h.7a1,1,0,0,1,.71.25,1,1,0,0,1,.27.73Zm-2.73-10.85a10.69,10.69,0,0,0-.64-3.72,9.58,9.58,0,0,0-1.79-3.07,8.41,8.41,0,0,0-2.76-2.09,8.06,8.06,0,0,0-3.52-.76,8.25,8.25,0,0,0-3.57.76,8.71,8.71,0,0,0-2.78,2.08,9.59,9.59,0,0,0-1.83,3.06,10.79,10.79,0,0,0,0,7.43,9.47,9.47,0,0,0,1.84,3,8.7,8.7,0,0,0,2.8,2.06,8.69,8.69,0,0,0,7,0,8.45,8.45,0,0,0,2.76-2,9.37,9.37,0,0,0,1.8-3A10.63,10.63,0,0,0,511.66,578.07Z" transform="translate(-377.9 -148.33)"/><path class="cls-3" d="M521.69,555a.83.83,0,0,1,.25-.64,1,1,0,0,1,.66-.22h.75a.81.81,0,0,1,.63.22,1.13,1.13,0,0,1,.25.64c0,.4.06.83.09,1.3s0,.93,0,1.41v31.2a.77.77,0,0,1-.88.87h-.84c-.63,0-.94-.29-.94-.87Z" transform="translate(-377.9 -148.33)"/><path class="cls-3" d="M553.49,584.6v1.83c0,.17,0,.36,0,.57a14.1,14.1,0,0,1-1,5.39,10.91,10.91,0,0,1-2.53,3.8,10.29,10.29,0,0,1-3.68,2.27,12.75,12.75,0,0,1-4.34.76,11.57,11.57,0,0,1-3.36-.46,15.08,15.08,0,0,1-2.88-1.22h0a3.43,3.43,0,0,1-.45-.3.45.45,0,0,1-.15-.35.8.8,0,0,1,.15-.36,5.91,5.91,0,0,1,.32-.5l.35-.5.22-.3a.56.56,0,0,1,.32-.26.9.9,0,0,1,.4,0,1.62,1.62,0,0,1,.45.18,5.24,5.24,0,0,0,.53.25,15.68,15.68,0,0,0,1.93.7,7.53,7.53,0,0,0,2,.28,9.72,9.72,0,0,0,3.28-.57,8.31,8.31,0,0,0,2.83-1.72,8.51,8.51,0,0,0,2-2.84,9.89,9.89,0,0,0,.74-3.94v-2.4a7.48,7.48,0,0,1-1.35,2.28,7.82,7.82,0,0,1-2.06,1.69,10,10,0,0,1-2.56,1,11.6,11.6,0,0,1-2.91.36,10.9,10.9,0,0,1-4.56-1,11.31,11.31,0,0,1-3.66-2.62,12.2,12.2,0,0,1-2.43-3.89,12.61,12.61,0,0,1-.89-4.77,13.14,13.14,0,0,1,.87-4.79,12.57,12.57,0,0,1,2.43-3.92,11.21,11.21,0,0,1,3.66-2.64,10.93,10.93,0,0,1,4.58-1,11.39,11.39,0,0,1,3.05.4,10.09,10.09,0,0,1,2.65,1.16,8.52,8.52,0,0,1,2,1.76,6.1,6.1,0,0,1,1.23,2.24l.09-4.1a1.24,1.24,0,0,1,.24-.73.88.88,0,0,1,.7-.25h.7a1,1,0,0,1,.7.25.92.92,0,0,1,.28.73Zm-2.74-6.53a10.27,10.27,0,0,0-.67-3.72,9.77,9.77,0,0,0-1.87-3.07,9.06,9.06,0,0,0-2.84-2.09,8.38,8.38,0,0,0-3.57-.76,8.24,8.24,0,0,0-3.56.76,8.86,8.86,0,0,0-2.79,2.08,9.75,9.75,0,0,0-1.82,3.06,10.79,10.79,0,0,0,0,7.43,9.29,9.29,0,0,0,1.84,3,8.66,8.66,0,0,0,2.79,2.06,8.32,8.32,0,0,0,3.54.75,8.57,8.57,0,0,0,3.54-.74,8.82,8.82,0,0,0,2.85-2,9.56,9.56,0,0,0,1.88-3A10,10,0,0,0,550.75,578.07Z" transform="translate(-377.9 -148.33)"/><path class="cls-3" d="M558.89,578a12,12,0,0,1,1-4.79,12.57,12.57,0,0,1,2.61-3.92,12.29,12.29,0,0,1,3.89-2.62,12.41,12.41,0,0,1,9.57,0,12.18,12.18,0,0,1,6.54,6.54,12.38,12.38,0,0,1,0,9.56,12.29,12.29,0,0,1-6.54,6.53,12.41,12.41,0,0,1-9.57,0,12.32,12.32,0,0,1-3.89-2.63,12.48,12.48,0,0,1-2.61-3.9A12,12,0,0,1,558.89,578Zm2.64,0a9,9,0,0,0,.77,3.73,10.08,10.08,0,0,0,2.07,3.06,9.51,9.51,0,0,0,3.06,2.07,9.58,9.58,0,0,0,7.48,0,9.45,9.45,0,0,0,3.07-2.07,10.3,10.3,0,0,0,2.08-3.06,9.18,9.18,0,0,0,.76-3.73,9.36,9.36,0,0,0-.76-3.76A10,10,0,0,0,578,571.2a9.63,9.63,0,0,0-3.07-2.08,9.47,9.47,0,0,0-7.48,0,9.79,9.79,0,0,0-5.13,5.15A9.2,9.2,0,0,0,561.53,578ZM570,555a1.27,1.27,0,0,1,1.25-.86h1c.58,0,.75.29.51.86l-2.4,5.62a1.53,1.53,0,0,1-.55.73,1.44,1.44,0,0,1-.73.18h-1c-.59,0-.76-.3-.5-.91Z" transform="translate(-377.9 -148.33)"/><path class="cls-3" d="M595.8,587.29a1.16,1.16,0,0,1,.71.23.81.81,0,0,1,.3.7v.8a.81.81,0,0,1-.32.74,1.57,1.57,0,0,1-.81.19H595a16.37,16.37,0,0,1-2.28-.15,4,4,0,0,1-1.82-.74,3.72,3.72,0,0,1-1.21-1.71,8.71,8.71,0,0,1-.45-3.11V568.81h-3.31a1.14,1.14,0,0,1-.71-.19A.85.85,0,0,1,585,568v-.89a.87.87,0,0,1,.23-.68,1.14,1.14,0,0,1,.71-.19h3.31v-7.08a.8.8,0,0,1,.79-.84l1.2-.16a.69.69,0,0,1,.65.28,1.42,1.42,0,0,1,.17.72v7.08h4.15a1.06,1.06,0,0,1,.69.22.9.9,0,0,1,.25.7v.79a.88.88,0,0,1-.25.69,1,1,0,0,1-.69.22H592v14.78a8.52,8.52,0,0,0,.17,2,2.2,2.2,0,0,0,.53,1.07,1.7,1.7,0,0,0,.9.47c.36.07.79.13,1.3.18Z" transform="translate(-377.9 -148.33)"/><path class="cls-3" d="M623.66,588.92a.8.8,0,0,1-.26.64,1.09,1.09,0,0,1-.72.23h-.77a.86.86,0,0,1-1-1v-4.17a7.51,7.51,0,0,1-1.27,2.39,8.13,8.13,0,0,1-2,1.76,9.15,9.15,0,0,1-2.53,1.1,11.33,11.33,0,0,1-7.51-.57,11.31,11.31,0,0,1-3.66-2.62,12.05,12.05,0,0,1-2.44-3.89,12.8,12.8,0,0,1-.89-4.77,12.94,12.94,0,0,1,.88-4.79,12.36,12.36,0,0,1,2.42-3.92,11.21,11.21,0,0,1,3.66-2.64,11.48,11.48,0,0,1,7.6-.56,9.77,9.77,0,0,1,2.58,1.16,8.12,8.12,0,0,1,2,1.76A6.59,6.59,0,0,1,621,571.3l.1-4.1a1.12,1.12,0,0,1,.24-.73.84.84,0,0,1,.69-.25h.7a1,1,0,0,1,.71.25,1,1,0,0,1,.27.73Zm-2.73-10.85a10.69,10.69,0,0,0-.64-3.72,9.58,9.58,0,0,0-1.79-3.07,8.41,8.41,0,0,0-2.76-2.09,8.06,8.06,0,0,0-3.52-.76,8.25,8.25,0,0,0-3.57.76,8.71,8.71,0,0,0-2.78,2.08,9.59,9.59,0,0,0-1.83,3.06,10.79,10.79,0,0,0,0,7.43,9.47,9.47,0,0,0,1.84,3,8.7,8.7,0,0,0,2.8,2.06,8.69,8.69,0,0,0,7,0,8.45,8.45,0,0,0,2.76-2,9.37,9.37,0,0,0,1.8-3A10.63,10.63,0,0,0,620.93,578.07Z" transform="translate(-377.9 -148.33)"/><path class="cls-3" d="M630.77,567.3q0-1.11,1.05-1.11h.53c.79,0,1.18.37,1.18,1.11v2.49a5.64,5.64,0,0,1,1-1.59,6,6,0,0,1,1.41-1.25,7.37,7.37,0,0,1,1.8-.81,7.72,7.72,0,0,1,2.13-.28,7.45,7.45,0,0,1,1.6.19,11.26,11.26,0,0,1,1.67.5,5.92,5.92,0,0,1,1.31.71,1.09,1.09,0,0,1,.53.8,1.34,1.34,0,0,1-.15.56,4,4,0,0,1-.34.6,3.43,3.43,0,0,1-.42.48.69.69,0,0,1-.36.19h-.3a.69.69,0,0,1-.26-.11,9.94,9.94,0,0,0-1.6-.79,5.12,5.12,0,0,0-4.31.25,6.14,6.14,0,0,0-1.92,1.63,8.07,8.07,0,0,0-1.27,2.33,7.75,7.75,0,0,0-.47,2.7l0,13a.78.78,0,0,1-.89.87h-1c-.61,0-.91-.29-.91-.87V567.3Z" transform="translate(-377.9 -148.33)"/><path class="cls-3" d="M646.18,598.19c-.79-.05-1.18-.38-1.18-1v-.72a.76.76,0,0,1,.31-.69,1.11,1.11,0,0,1,.65-.22h.26a6.49,6.49,0,0,0,1.83-.24,3.32,3.32,0,0,0,1.39-.8,3.83,3.83,0,0,0,.89-1.52,7.68,7.68,0,0,0,.31-2.38V567.18a.89.89,0,0,1,.28-.71,1,1,0,0,1,.68-.25h.77a.89.89,0,0,1,.71.26,1,1,0,0,1,.22.7v23.54a10.06,10.06,0,0,1-.43,2.81,7.56,7.56,0,0,1-1.2,2.39,5.84,5.84,0,0,1-2,1.66,6,6,0,0,1-2.81.63h-.35Zm3.74-39a2,2,0,0,1,.61-1.47,2,2,0,0,1,1.48-.62,2.12,2.12,0,0,1,2.09,2.09,2.1,2.1,0,0,1-2.09,2.09,2,2,0,0,1-1.48-.61A2,2,0,0,1,649.92,559.16Z" transform="translate(-377.9 -148.33)"/><path class="cls-3" d="M682.46,588.92a.8.8,0,0,1-.26.64,1.09,1.09,0,0,1-.72.23h-.77a.86.86,0,0,1-1-1v-4.17a7.51,7.51,0,0,1-1.27,2.39,8.13,8.13,0,0,1-2,1.76,9.28,9.28,0,0,1-2.53,1.1,11.33,11.33,0,0,1-7.51-.57,11.46,11.46,0,0,1-3.67-2.62,12.2,12.2,0,0,1-2.43-3.89,12.8,12.8,0,0,1-.89-4.77,12.94,12.94,0,0,1,.88-4.79,12.36,12.36,0,0,1,2.42-3.92,11.21,11.21,0,0,1,3.66-2.64,11.48,11.48,0,0,1,7.6-.56,9.77,9.77,0,0,1,2.58,1.16,8.12,8.12,0,0,1,2,1.76,6.59,6.59,0,0,1,1.17,2.24l.1-4.1a1.12,1.12,0,0,1,.24-.73.84.84,0,0,1,.69-.25h.7a1,1,0,0,1,.71.25,1,1,0,0,1,.27.73Zm-2.73-10.85a10.69,10.69,0,0,0-.64-3.72,9.58,9.58,0,0,0-1.79-3.07,8.41,8.41,0,0,0-2.76-2.09,8.09,8.09,0,0,0-3.52-.76,8.25,8.25,0,0,0-3.57.76,8.71,8.71,0,0,0-2.78,2.08,9.59,9.59,0,0,0-1.83,3.06,10.79,10.79,0,0,0,0,7.43,9.29,9.29,0,0,0,1.84,3,8.66,8.66,0,0,0,2.79,2.06,8.71,8.71,0,0,0,7,0,8.45,8.45,0,0,0,2.76-2,9.37,9.37,0,0,0,1.8-3A10.63,10.63,0,0,0,679.73,578.07ZM671.33,555a1.27,1.27,0,0,1,1.25-.86h1c.58,0,.75.29.51.86l-2.4,5.62a1.48,1.48,0,0,1-.56.73,1.36,1.36,0,0,1-.71.18h-1c-.59,0-.76-.3-.5-.91Z" transform="translate(-377.9 -148.33)"/><path class="cls-3" d="M692.35,588.87a.78.78,0,0,1-.89.87h-1c-.61,0-.91-.29-.91-.87v-22a.77.77,0,0,1,.19-.55.68.68,0,0,1,.55-.22h1.42a.53.53,0,0,1,.37.15.59.59,0,0,1,.18.38l.07,3.26a9.55,9.55,0,0,1,1.42-1.65,8.73,8.73,0,0,1,1.8-1.33,8.9,8.9,0,0,1,2.1-.89,8.17,8.17,0,0,1,2.34-.33,9.47,9.47,0,0,1,6.88,2.88,10,10,0,0,1,2.05,3.16,10.23,10.23,0,0,1,.74,3.88v13.15a1,1,0,0,1-.25.72,1,1,0,0,1-.69.24h-1a.83.83,0,0,1-.67-.23,1.07,1.07,0,0,1-.2-.71V575.58a6.88,6.88,0,0,0-.6-2.79,7.38,7.38,0,0,0-1.54-2.25,7.16,7.16,0,0,0-2.27-1.51,6.91,6.91,0,0,0-2.76-.56A7.32,7.32,0,0,0,697,569a7.83,7.83,0,0,0-2.32,1.45,7.14,7.14,0,0,0-1.61,2.19,6.92,6.92,0,0,0-.69,2.72Z" transform="translate(-377.9 -148.33)"/><path class="cls-2" d="M483.29,607.74a.59.59,0,0,1,.15-.43.58.58,0,0,1,.45-.16h.57a.69.69,0,0,1,.47.16.54.54,0,0,1,.18.43v23.32c0,.39-.22.59-.65.59h-.57a.53.53,0,0,1-.6-.59v-8H467v8c0,.39-.21.59-.63.59h-.57a.53.53,0,0,1-.6-.59V607.74a.59.59,0,0,1,.15-.43.58.58,0,0,1,.45-.16h.59a.61.61,0,0,1,.45.16.56.56,0,0,1,.16.43v13.52h16.3Z" transform="translate(-377.9 -148.33)"/><path class="cls-2" d="M491.44,621.88a8.79,8.79,0,0,0,.62,3.29,8.28,8.28,0,0,0,1.72,2.67,7.84,7.84,0,0,0,2.61,1.79,8.26,8.26,0,0,0,3.29.65,8.42,8.42,0,0,0,3.33-.65,7.84,7.84,0,0,0,2.61-1.79,8.2,8.2,0,0,0,1.69-2.67,9,9,0,0,0,.6-3.29V607.74a.56.56,0,0,1,.17-.43.65.65,0,0,1,.46-.16h.54a.67.67,0,0,1,.47.16.51.51,0,0,1,.19.43v14.34a10.06,10.06,0,0,1-.81,4,9.53,9.53,0,0,1-2.15,3.15,9.65,9.65,0,0,1-3.19,2.07,10.23,10.23,0,0,1-3.91.75,9.91,9.91,0,0,1-2.68-.36,9.77,9.77,0,0,1-2.4-1,10.3,10.3,0,0,1-2-1.57,9.38,9.38,0,0,1-1.56-2,10.2,10.2,0,0,1-1-2.4,9.76,9.76,0,0,1-.36-2.66V607.74a.64.64,0,0,1,.15-.42.55.55,0,0,1,.43-.17h.62a.6.6,0,0,1,.43.16.54.54,0,0,1,.18.43Z" transform="translate(-377.9 -148.33)"/><path class="cls-2" d="M516.51,610.65v20.41a.53.53,0,0,1-.61.59h-.58a.53.53,0,0,1-.61-.59V607.15a1,1,0,0,1,.07-.37c.05-.13.17-.19.36-.19a.57.57,0,0,1,.41.18q4.43,5.4,8.8,10.73l8.81,10.74v-20.5a.53.53,0,0,1,.61-.59h.59a.52.52,0,0,1,.59.59v24a.88.88,0,0,1-.1.34c-.05.12-.17.17-.36.17a.52.52,0,0,1-.44-.21Z" transform="translate(-377.9 -148.33)"/><path class="cls-2" d="M559.92,621.75v7a.57.57,0,0,1-.32.5l-.05.05a12.2,12.2,0,0,1-3.58,2,12.83,12.83,0,0,1-4.22.69,12.31,12.31,0,0,1-4.89-1,12.48,12.48,0,0,1-4-2.69,12.9,12.9,0,0,1-2.68-4,12.63,12.63,0,0,1-.53-8.22,12.06,12.06,0,0,1,1.26-3,12.39,12.39,0,0,1,2-2.54,12.41,12.41,0,0,1,5.54-3.25,12.4,12.4,0,0,1,8.28.57l.89.42a8.05,8.05,0,0,1,1,.56,6.13,6.13,0,0,1,.81.62.88.88,0,0,1,.34.57,1.16,1.16,0,0,1-.06.33,1.7,1.7,0,0,1-.42.7.56.56,0,0,1-.35.13.68.68,0,0,1-.44-.18,10.64,10.64,0,0,0-3.07-1.7,10.35,10.35,0,0,0-3.53-.6,10.83,10.83,0,0,0-5.52,1.51,11,11,0,0,0-2.18,1.71,10.66,10.66,0,0,0-1.68,2.18,10.82,10.82,0,0,0-1.09,2.54,10.38,10.38,0,0,0-.38,2.79,10.2,10.2,0,0,0,.39,2.84,11.11,11.11,0,0,0,1.08,2.55,10.42,10.42,0,0,0,1.68,2.17,10.5,10.5,0,0,0,7.51,3.15,10,10,0,0,0,3.35-.58,14.87,14.87,0,0,0,3.07-1.52V623h-6a.56.56,0,0,1-.61-.61v-.59a.54.54,0,0,1,.61-.62h7.16A.55.55,0,0,1,559.92,621.75Z" transform="translate(-377.9 -148.33)"/><path class="cls-2" d="M581.81,631.21l-.66-1.6-.66-1.62H565.82l-1.3,3.15a.71.71,0,0,1-.64.51,2,2,0,0,1-.89-.16c-.22-.1-.33-.22-.33-.37a.71.71,0,0,1,.06-.28l9.64-23c0-.1.1-.21.16-.35l.21-.37a2.43,2.43,0,0,1,.22-.29.35.35,0,0,1,.22-.11.52.52,0,0,1,.49.36l9.93,23.83a.26.26,0,0,1,0,.15.5.5,0,0,1,0,.16c0,.12-.13.23-.38.32a2.32,2.32,0,0,1-.86.14A.63.63,0,0,1,581.81,631.21Zm-15.24-5h13.16l-6-14.48-.27-.67c-.1-.23-.19-.45-.29-.67,0,0,0,0,0,0Z" transform="translate(-377.9 -148.33)"/><path class="cls-2" d="M605.41,616.41a9.6,9.6,0,0,1-.28,2.27,8.89,8.89,0,0,1-.83,2.13,9.35,9.35,0,0,1-1.33,1.87,8.51,8.51,0,0,1-1.82,1.5l3.17,6.7a.49.49,0,0,1,0,.13,1.15,1.15,0,0,1,0,.16.48.48,0,0,1-.13.33.43.43,0,0,1-.35.15h-1a.51.51,0,0,1-.48-.35l-3-6.28a9.34,9.34,0,0,1-3.5.61h-6.73V631c0,.41-.22.62-.65.62H588a.55.55,0,0,1-.62-.62v-23.2a.63.63,0,0,1,.17-.47.59.59,0,0,1,.4-.21h8a9.57,9.57,0,0,1,3.93.78,9.05,9.05,0,0,1,3,2.07,9.27,9.27,0,0,1,1.88,3A9.48,9.48,0,0,1,605.41,616.41ZM596,623.75a7.87,7.87,0,0,0,3.2-.62,7.1,7.1,0,0,0,2.37-1.65,7.49,7.49,0,0,0,0-10.17,7.3,7.3,0,0,0-2.37-1.67A7.71,7.71,0,0,0,596,609h-6.73v14.74Z" transform="translate(-377.9 -148.33)"/><path class="cls-2" d="M609,607.94a.69.69,0,0,1-.15-.4.35.35,0,0,1,.16-.3.65.65,0,0,1,.37-.12l.4,0a1.86,1.86,0,0,1,.41,0,1.17,1.17,0,0,1,.4.13.91.91,0,0,1,.34.36l.66,1.08c1,1.81,2.11,3.6,3.16,5.37l3.17,5.36,3.38-5.69q1.68-2.81,3.37-5.66c.08-.13.15-.26.21-.37a1,1,0,0,1,.22-.3,1,1,0,0,1,.34-.2,1.82,1.82,0,0,1,.59-.07h.34a1.51,1.51,0,0,1,.32,0,.53.53,0,0,1,.24.11.3.3,0,0,1,.09.24.55.55,0,0,1,0,.16.65.65,0,0,1-.11.22c-1.35,2.22-2.69,4.45-4,6.69s-2.67,4.48-4,6.7V631a.53.53,0,0,1-.6.61h-.62a.53.53,0,0,1-.6-.61v-9.7Z" transform="translate(-377.9 -148.33)"/></g><g id="Layer_7" data-name="Layer 7"><path class="cls-3" d="M522,207.1v34.31h35.32V207.1Zm26.39,9.65H531l0-4.83h17.45Z" transform="translate(-377.9 -148.33)"/><polygon class="cls-3" points="289.62 125.58 289.42 114.25 269.22 112.17 269.22 101.09 253.66 101.09 253.66 122.73 258.21 122.73 289.62 125.58"/><polygon class="cls-2" points="271.28 101.42 251.78 101.42 257.47 96.08 261.53 88.04 265.43 96.09 271.28 101.42"/><polygon class="cls-2" points="161.86 41.59 140.28 60.1 183.45 60.13 161.86 41.59"/></g><g id="Layer_5" data-name="Layer 5"><path class="cls-4" d="M581.42,321.53s30.75-36.78,32.3-37.65,17.51-14,17.51-14l6.5-.74s8.38-.51,9.31-.51,20.48,5,20.48,5l38.59,12.22s19.62,12,20.56,12.88,26.65,14.46,26.65,14.46l33.55,34.56L818,374.23l-58.74,3.23-59.57,5.08Z" transform="translate(-377.9 -148.33)"/></g><g id="Layer_4" data-name="Layer 4"><path class="cls-5" d="M377.9,342.6l53.78-36.77S477.11,256,479.56,255s32.73-22.47,32.73-22.47l20-10.74s15.63,18.07,17.1,18.07,11.24.49,11.24.49L575.79,256s34.19,26.38,35.66,27.36,46.41,24.91,46.41,24.91L712.57,320l92.64,66.1-88.73-16.67s-63.86-4.73-63.63-5.64c.49-1.95-81.1-46-81.1-46L531.1,306.23,440.29,352l-20.58-3.27Z" transform="translate(-377.9 -148.33)"/></g><g id="Layer_2" data-name="Layer 2"><path class="cls-6" d="M660.46,356.18l-86.29-44.95s-16.79.08-20.78-2.26c-9.41-5.54-12.26-8.19-12.87-8.36-14.23-4.07-67.77,30.49-67.77,30.49l-53,17.66s1.49,5.35,2.34,8A158,158,0,0,0,572.37,466.18c65.4,0,120.14-40.09,144.11-96.76ZM539.68,328a8.19,8.19,0,1,1-11,3.7A8.18,8.18,0,0,1,539.68,328Zm-22.29-4.8c8-6,14.65.05,13,3.33-2.64,5.13-10.5,7-14.35,5.89-3.61-1-9.59-3.82-9.94-9.18C505.89,320.39,509.37,329.27,517.39,323.24Zm-23.56,26.45S504.56,340,507,339.24s16.6,2.24,19.72,3.07a15,15,0,0,1,7.29,4.87c2,2.25,7.64,19.21,7.64,19.21l9.23-4.55s3.22-1.48,4.6,1.43a3.4,3.4,0,0,1-.43,3.94s-15.53,7.24-17.34,6.59S529.59,358,529.59,358L524,365.9l-12.35-4.54,7.89-12.91-11.48-2.39-9.32,7.78a3.51,3.51,0,0,1-3.78-.18C493.26,352.27,493.83,349.69,493.83,349.69ZM489.17,425a125.44,125.44,0,0,1-21.46-7.56l2.09-5.94A150.39,150.39,0,0,0,491.26,419Zm12.61,1.56-.57-6.27a177.43,177.43,0,0,0,22.67-2l.56,6.27A127.83,127.83,0,0,1,501.78,426.53Zm26.75-14.64a5.63,5.63,0,0,1-4.25-3.47l3-20.31-12.44-12.48s-8,9.11-10,9.58-24.65-3.47-24.65-3.47-3.56-1.09-3.26-4.61c.23-2.78,4.67-3.5,4.67-3.5l19.35,3L510,363.78l12.35,4.39s14,14.62,13.76,17.81-3.2,23.73-3.2,23.73A4.16,4.16,0,0,1,528.53,411.89Zm8.13,10.18L535.19,416l22.12-5.32,1.48,6.12Zm33.79-8.4-1.67-6.07,21.94-6,1.67,6.07Zm32.91-8.83-1.29-6.16A203.55,203.55,0,0,1,624.34,394l.47,6.27A160.86,160.86,0,0,0,603.36,404.84Zm58.92,6.24H629.75V378.55h32.53Zm4.49-10.16.88-6.1a88.3,88.3,0,0,1,20,10.21l-3.76,4.87A52.18,52.18,0,0,0,666.77,400.92Z" transform="translate(-377.9 -148.33)"/></g><g id="Layer_1" data-name="Layer 1"><polygon class="cls-3" points="52.81 159.74 53.05 120.85 72.14 120.61 88.33 112.53 87.38 155.15 52.81 159.74"/><polygon class="cls-2" points="141.74 103.19 141.43 122.08 127.06 131.6 125.36 143.27 87.49 155.05 88.33 112.53 119.24 104.73 141.74 103.19"/><polygon class="cls-2" points="220.58 118.66 195.7 107.64 196.3 126.72 221.17 125.69 220.58 118.66"/><polygon class="cls-3" points="141.74 103.19 195.7 107.64 196.42 126.72 141.43 122.08 141.74 103.19"/></g><g id="Layer_6" data-name="Layer 6"><polygon class="cls-7" points="255.36 233.43 280.87 259.54 255.36 259.54 255.36 233.43"/></g></svg>