<svg id="Layer_1" data-name="Layer 1" xmlns="http://www.w3.org/2000/svg" viewBox="0 0 563.67 447.16"><defs><style>.cls-1,.cls-8{fill:#2f4a4e;}.cls-2{fill:#506a6b;}.cls-3{fill:#94d6da;}.cls-4{fill:#3d813f;}.cls-5{fill:#6aa744;}.cls-6{fill:#a5cf4c;}.cls-7{fill:#ed1c24;}.cls-8{font-size:46.66px;font-family:PTSans-CaptionBold, PT Sans Caption;font-weight:700;}</style></defs><title>eyoc_2020_logo_final_typo_final</title><path class="cls-1" d="M310.5,703.77h21.7V710H317.62v7.31h13.23v6.25H317.62v7.61h14.82v6.25H310.5Z" transform="translate(-111 -370.37)"/><path class="cls-1" d="M346.53,725l-12-21.27H343l6.74,12.37.77,3.61h.24l.82-3.71L358,703.77h7.65l-12,21.22v12.46h-7.12Z" transform="translate(-111 -370.37)"/><path class="cls-1" d="M365,720.61a23.93,23.93,0,0,1,1.06-7.41,15.16,15.16,0,0,1,3.05-5.51,13.08,13.08,0,0,1,4.89-3.41,18.8,18.8,0,0,1,13.35.09,13.3,13.3,0,0,1,4.86,3.59,15.49,15.49,0,0,1,2.93,5.53,24.17,24.17,0,0,1,1,7.12,23.58,23.58,0,0,1-1.08,7.41,15.33,15.33,0,0,1-3.11,5.51A13.34,13.34,0,0,1,387,737a17.1,17.1,0,0,1-6.49,1.18,16.85,16.85,0,0,1-6.81-1.28,13.16,13.16,0,0,1-4.86-3.58,15.19,15.19,0,0,1-2.91-5.54A24.87,24.87,0,0,1,365,720.61Zm7.55,0a20.22,20.22,0,0,0,.48,4.57,11.32,11.32,0,0,0,1.45,3.57,6.59,6.59,0,0,0,2.48,2.3,7.34,7.34,0,0,0,3.58.82,7.19,7.19,0,0,0,5.92-2.6q2.11-2.6,2.11-8.66a21.74,21.74,0,0,0-.43-4.47,10.42,10.42,0,0,0-1.42-3.59,7,7,0,0,0-2.5-2.35,7.39,7.39,0,0,0-3.68-.85,7,7,0,0,0-5.87,2.7Q372.56,714.75,372.56,720.61Z" transform="translate(-111 -370.37)"/><path class="cls-1" d="M425.92,736a10.83,10.83,0,0,1-4.19,1.61,27.63,27.63,0,0,1-5.34.51,19.88,19.88,0,0,1-6.18-1,13.84,13.84,0,0,1-5.24-3.08,14.87,14.87,0,0,1-3.64-5.43,21.57,21.57,0,0,1-1.34-8,19.63,19.63,0,0,1,1.54-8.25,15.39,15.39,0,0,1,3.94-5.39,15.12,15.12,0,0,1,5.34-3,19.34,19.34,0,0,1,5.78-.91,31,31,0,0,1,5.26.38,20.8,20.8,0,0,1,3.54.92l-1.39,6a11.32,11.32,0,0,0-2.82-.78,28.4,28.4,0,0,0-4.07-.24,10.65,10.65,0,0,0-3.92.7,7.9,7.9,0,0,0-3,2.09,9.72,9.72,0,0,0-1.95,3.52,17.38,17.38,0,0,0-.07,9.52,10,10,0,0,0,1.87,3.57,8.29,8.29,0,0,0,3.18,2.3,11.25,11.25,0,0,0,4.47.82,15.48,15.48,0,0,0,4-.43,13.11,13.11,0,0,0,2.86-1.11Z" transform="translate(-111 -370.37)"/><path class="cls-1" d="M456.77,711.63a13.75,13.75,0,0,1-1,5,30.4,30.4,0,0,1-2.63,5.13,58.07,58.07,0,0,1-3.61,5.09q-2,2.52-4,4.86l-2.6,2.09V734l3.46-.52h11.23v4H436.34v-1.69q1.16-1.11,2.76-2.73c1.07-1.08,2.18-2.27,3.35-3.58s2.31-2.68,3.45-4.13a44.19,44.19,0,0,0,3-4.43,28.66,28.66,0,0,0,2.17-4.43,11.53,11.53,0,0,0,.84-4.13,5.36,5.36,0,0,0-1.39-3.78,5.52,5.52,0,0,0-4.26-1.5,9.75,9.75,0,0,0-3.87.8,12.05,12.05,0,0,0-3.21,1.95l-2-3.23a16.1,16.1,0,0,1,4.48-2.53,15.78,15.78,0,0,1,5.54-.94,9.86,9.86,0,0,1,7,2.34A8.06,8.06,0,0,1,456.77,711.63Z" transform="translate(-111 -370.37)"/><path class="cls-1" d="M464,720.59q0-8.43,3.08-13a10.31,10.31,0,0,1,9.11-4.53q6.36,0,9.3,4.48t2.94,13q0,8.38-3.14,12.94a10.41,10.41,0,0,1-9.15,4.55,11.3,11.3,0,0,1-5.47-1.25,10.44,10.44,0,0,1-3.76-3.54,17,17,0,0,1-2.19-5.52A33.06,33.06,0,0,1,464,720.59Zm4.82,0a32,32,0,0,0,.43,5.46,16.69,16.69,0,0,0,1.3,4.34,7.61,7.61,0,0,0,2.29,2.89,5.47,5.47,0,0,0,3.35,1,5.94,5.94,0,0,0,5.64-3.4q1.77-3.39,1.78-10.33a37,37,0,0,0-.38-5.46,15.87,15.87,0,0,0-1.26-4.34,7.56,7.56,0,0,0-2.31-2.89,5.75,5.75,0,0,0-3.47-1,5.88,5.88,0,0,0-5.61,3.44Q468.76,713.75,468.77,720.59Z" transform="translate(-111 -370.37)"/><path class="cls-1" d="M514,711.63a13.75,13.75,0,0,1-1,5,30.4,30.4,0,0,1-2.63,5.13,60.26,60.26,0,0,1-3.61,5.09q-2,2.52-4,4.86l-2.6,2.09V734l3.47-.52h11.23v4H493.58v-1.69c.76-.74,1.68-1.65,2.75-2.73s2.19-2.27,3.35-3.58,2.32-2.68,3.45-4.13a41.08,41.08,0,0,0,3-4.43,28.74,28.74,0,0,0,2.18-4.43,11.53,11.53,0,0,0,.84-4.13,5.36,5.36,0,0,0-1.39-3.78,5.52,5.52,0,0,0-4.26-1.5,9.84,9.84,0,0,0-3.88.8,12.15,12.15,0,0,0-3.2,1.95l-2-3.23A16.24,16.24,0,0,1,499,704a15.88,15.88,0,0,1,5.55-.94,9.84,9.84,0,0,1,7,2.34A8.07,8.07,0,0,1,514,711.63Z" transform="translate(-111 -370.37)"/><path class="cls-1" d="M521.19,720.59q0-8.43,3.08-13a10.31,10.31,0,0,1,9.11-4.53q6.36,0,9.29,4.48t2.94,13q0,8.38-3.13,12.94a10.42,10.42,0,0,1-9.15,4.55,11.3,11.3,0,0,1-5.47-1.25,10.36,10.36,0,0,1-3.76-3.54,17,17,0,0,1-2.19-5.52A33.06,33.06,0,0,1,521.19,720.59Zm4.81,0a33,33,0,0,0,.43,5.46,16.68,16.68,0,0,0,1.31,4.34,7.69,7.69,0,0,0,2.28,2.89,5.53,5.53,0,0,0,3.36,1,5.94,5.94,0,0,0,5.63-3.4q1.79-3.39,1.78-10.33a35.64,35.64,0,0,0-.38-5.46,15.2,15.2,0,0,0-1.26-4.34,7.45,7.45,0,0,0-2.3-2.89,5.75,5.75,0,0,0-3.47-1,5.9,5.9,0,0,0-5.62,3.44Q526,713.75,526,720.59Z" transform="translate(-111 -370.37)"/><path class="cls-2" d="M319.23,756.81a1.79,1.79,0,0,0-.6-1.42,5.54,5.54,0,0,0-1.5-.91c-.6-.25-1.25-.49-1.94-.72a10.62,10.62,0,0,1-1.94-.87,4.92,4.92,0,0,1-1.5-1.37,4.12,4.12,0,0,1,.79-5.2,6,6,0,0,1,3.93-1.15,16.07,16.07,0,0,1,2.71.22,7.27,7.27,0,0,1,1.94.58l-.68,1.85a7.39,7.39,0,0,0-1.65-.49,12.26,12.26,0,0,0-2.43-.22,3.38,3.38,0,0,0-2.25.64,1.87,1.87,0,0,0-.75,1.46,1.71,1.71,0,0,0,.6,1.37,5.83,5.83,0,0,0,1.5.93c.6.27,1.25.53,1.94.78a10.83,10.83,0,0,1,1.94.93,5.27,5.27,0,0,1,1.5,1.35,3.44,3.44,0,0,1,.59,2.06,4.28,4.28,0,0,1-.4,1.88,3.93,3.93,0,0,1-1.14,1.43,5.22,5.22,0,0,1-1.81.91,8.06,8.06,0,0,1-2.4.32,14.61,14.61,0,0,1-3.05-.27,9.08,9.08,0,0,1-1.89-.59l.73-1.91a9.34,9.34,0,0,0,1.66.55,9.9,9.9,0,0,0,2.46.28,6.48,6.48,0,0,0,1.43-.14,3.88,3.88,0,0,0,1.16-.43,2.16,2.16,0,0,0,.77-.76A2.1,2.1,0,0,0,319.23,756.81Z" transform="translate(-111 -370.37)"/><path class="cls-2" d="M324.3,750a11.38,11.38,0,0,1,4.91-.94,5.52,5.52,0,0,1,2.13.34,3.27,3.27,0,0,1,1.24.87,2.69,2.69,0,0,1,.59,1.18,6.29,6.29,0,0,1,.14,1.29c0,.8,0,1.62-.09,2.43s-.09,1.7-.09,2.66c0,.56,0,1.1.08,1.62a9.78,9.78,0,0,0,.25,1.44H332l-.55-1.76h-.22a5.93,5.93,0,0,1-.6.67,3.63,3.63,0,0,1-.84.61,5.1,5.1,0,0,1-2.55.61,4.46,4.46,0,0,1-1.5-.23,3.46,3.46,0,0,1-1.18-.65,3,3,0,0,1-.78-1,3.19,3.19,0,0,1-.29-1.36,3.3,3.3,0,0,1,.43-1.72,3.83,3.83,0,0,1,1.11-1.19,5,5,0,0,1,1.56-.68,6.84,6.84,0,0,1,1.73-.22l1.15,0c.32,0,.58,0,.8.06l.54.06.39.06c0-.22.06-.41.07-.58s0-.36,0-.61a3.47,3.47,0,0,0-.13-1,1.42,1.42,0,0,0-.43-.67,1.92,1.92,0,0,0-.8-.37,6.27,6.27,0,0,0-1.24-.1,7.72,7.72,0,0,0-.92.06,9.13,9.13,0,0,0-1,.19,8.83,8.83,0,0,0-1,.3,6.83,6.83,0,0,0-.89.37Zm6.89,5.6-.37-.06a2.73,2.73,0,0,0-.49-.07l-.7,0q-.4,0-1,0a4.16,4.16,0,0,0-2.16.49,1.77,1.77,0,0,0-.8,1.65,1.5,1.5,0,0,0,.63,1.32,2.66,2.66,0,0,0,1.6.44,4.12,4.12,0,0,0,1.28-.18,4.37,4.37,0,0,0,1-.46,2.76,2.76,0,0,0,.65-.62,2.7,2.7,0,0,0,.38-.67Z" transform="translate(-111 -370.37)"/><path class="cls-2" d="M339.55,757.82a1.87,1.87,0,0,0,.34,1.28,1.18,1.18,0,0,0,.91.38,5.09,5.09,0,0,0,.69-.05,7.21,7.21,0,0,0,.79-.17l.26,1.5c-.14,0-.32.11-.52.16l-.64.14a4.92,4.92,0,0,1-.67.1,4.27,4.27,0,0,1-.59,0,2.85,2.85,0,0,1-1.9-.61,2.54,2.54,0,0,1-.7-2V745.46h2Z" transform="translate(-111 -370.37)"/><path class="cls-2" d="M354.56,761a4.16,4.16,0,0,1-1.34,3.39,6,6,0,0,1-3.91,1.11,13.06,13.06,0,0,1-2.42-.18,6.65,6.65,0,0,1-1.59-.48l.48-1.83q.29.13.66.27a6.09,6.09,0,0,0,.79.26c.28.07.56.13.85.18a5.87,5.87,0,0,0,.82.06,6.82,6.82,0,0,0,1.78-.19,2.54,2.54,0,0,0,1.12-.58,2,2,0,0,0,.57-1,5.75,5.75,0,0,0,.16-1.47v-.82h-.24a2.48,2.48,0,0,1-1.23.93,5.88,5.88,0,0,1-2.14.35,4.66,4.66,0,0,1-3.69-1.35A6.61,6.61,0,0,1,344,755.2a6.35,6.35,0,0,1,1.55-4.58,6,6,0,0,1,4.58-1.61,16.27,16.27,0,0,1,2.5.17,12.42,12.42,0,0,1,1.89.47Zm-5.17-1.74a3,3,0,0,0,2.08-.68,3.57,3.57,0,0,0,1-1.79v-5.68a6.75,6.75,0,0,0-1.16-.24,11,11,0,0,0-1.48-.09,3.34,3.34,0,0,0-2.66,1.09,4.93,4.93,0,0,0-1,3.34,5.33,5.33,0,0,0,.71,3A2.71,2.71,0,0,0,349.39,759.21Z" transform="translate(-111 -370.37)"/><path class="cls-2" d="M357.86,755.11a8.21,8.21,0,0,1,.38-2.57,5.2,5.2,0,0,1,1.1-1.92,4.72,4.72,0,0,1,1.77-1.22,6.62,6.62,0,0,1,2.39-.41,6.08,6.08,0,0,1,2.47.46,4.83,4.83,0,0,1,1.77,1.29,5.42,5.42,0,0,1,1,1.94,8.16,8.16,0,0,1,.34,2.43,7.75,7.75,0,0,1-.38,2.54,5.51,5.51,0,0,1-1.1,1.91,4.72,4.72,0,0,1-1.77,1.22,6.92,6.92,0,0,1-4.88,0,4.82,4.82,0,0,1-1.75-1.27,5.53,5.53,0,0,1-1-1.93A8.47,8.47,0,0,1,357.86,755.11Zm2.21,0a7.07,7.07,0,0,0,.18,1.6,4.1,4.1,0,0,0,.6,1.4,3.08,3.08,0,0,0,1.07,1,3.17,3.17,0,0,0,1.61.38q3.39,0,3.39-4.37a7.45,7.45,0,0,0-.18-1.65,4.32,4.32,0,0,0-.59-1.4,3.12,3.12,0,0,0-1.06-1,3.08,3.08,0,0,0-1.56-.38,3.11,3.11,0,0,0-2.58,1.1A5.17,5.17,0,0,0,360.07,755.11ZM363.7,745H366v.51l-2.46,2.8h-1.24Z" transform="translate(-111 -370.37)"/><path class="cls-2" d="M371,749.32h2V747l2-.53v2.87h3.49V751H375v5.9a3.88,3.88,0,0,0,.36,2,1.29,1.29,0,0,0,1.21.58,3.86,3.86,0,0,0,1-.12c.3-.08.64-.19,1-.32l.46,1.43a10.7,10.7,0,0,1-1.51.52,6.83,6.83,0,0,1-1.73.21,2.59,2.59,0,0,1-2.19-.84,4.46,4.46,0,0,1-.65-2.73V751h-2Z" transform="translate(-111 -370.37)"/><path class="cls-2" d="M381.18,750a11.39,11.39,0,0,1,4.92-.94,5.43,5.43,0,0,1,2.12.34,3.31,3.31,0,0,1,1.25.87,2.67,2.67,0,0,1,.58,1.18,5.66,5.66,0,0,1,.14,1.29c0,.8,0,1.62-.08,2.43s-.09,1.7-.09,2.66a14.17,14.17,0,0,0,.08,1.62,8.62,8.62,0,0,0,.25,1.44h-1.48l-.55-1.76h-.22a5.78,5.78,0,0,1-.59.67,4.12,4.12,0,0,1-.84.61,6.08,6.08,0,0,1-1.12.44,5.63,5.63,0,0,1-1.44.17,4.54,4.54,0,0,1-1.5-.23,3.55,3.55,0,0,1-1.18-.65,3,3,0,0,1-.78-1,3.19,3.19,0,0,1-.29-1.36,3.4,3.4,0,0,1,.43-1.72,3.75,3.75,0,0,1,1.12-1.19,4.84,4.84,0,0,1,1.55-.68,6.9,6.9,0,0,1,1.73-.22l1.16,0c.31,0,.58,0,.79.06l.54.06.4.06c0-.22.05-.41.06-.58a5,5,0,0,0,0-.61,3.44,3.44,0,0,0-.14-1,1.35,1.35,0,0,0-.43-.67,1.81,1.81,0,0,0-.8-.37,6.23,6.23,0,0,0-1.23-.1,8,8,0,0,0-.93.06,8.56,8.56,0,0,0-1,.19,9,9,0,0,0-1,.3,7.46,7.46,0,0,0-.89.37Zm6.9,5.6-.37-.06a2.86,2.86,0,0,0-.5-.07l-.69,0c-.27,0-.61,0-1,0a4.15,4.15,0,0,0-2.15.49,1.75,1.75,0,0,0-.8,1.65,1.51,1.51,0,0,0,.62,1.32,2.69,2.69,0,0,0,1.61.44,4.17,4.17,0,0,0,1.28-.18,4.28,4.28,0,0,0,1-.46,2.81,2.81,0,0,0,.66-.62,3.54,3.54,0,0,0,.38-.67Z" transform="translate(-111 -370.37)"/><path class="cls-2" d="M400.18,751.23l-.73-.16a3.13,3.13,0,0,0-.66-.08,2.62,2.62,0,0,0-1.82.59,2.57,2.57,0,0,0-.8,1.5v7.81h-2V749.32h1.41l.4,1.54h.2a4.15,4.15,0,0,1,1.17-1.33,2.84,2.84,0,0,1,1.69-.48,5.22,5.22,0,0,1,.73.06,5,5,0,0,1,.84.18Z" transform="translate(-111 -370.37)"/><path class="cls-2" d="M403,749.32h2v12a5.24,5.24,0,0,1-.8,3.18,3.06,3.06,0,0,1-2.59,1h-.39a2.48,2.48,0,0,1-.45,0V763.8a2.74,2.74,0,0,0,1.16-.18,1.44,1.44,0,0,0,.66-.61,3,3,0,0,0,.31-1,11.94,11.94,0,0,0,.07-1.44Zm-.46-2.76a1.25,1.25,0,0,1,.4-.91,1.38,1.38,0,0,1,1-.41,1.46,1.46,0,0,1,1.06.41,1.23,1.23,0,0,1,.42.91,1.16,1.16,0,0,1-.42.89,1.49,1.49,0,0,1-1.06.39,1.4,1.4,0,0,1-1-.39A1.17,1.17,0,0,1,402.58,746.56Z" transform="translate(-111 -370.37)"/><path class="cls-2" d="M409.26,750a11.38,11.38,0,0,1,4.91-.94,5.52,5.52,0,0,1,2.13.34,3.31,3.31,0,0,1,1.25.87,2.78,2.78,0,0,1,.58,1.18,6.29,6.29,0,0,1,.14,1.29c0,.8,0,1.62-.09,2.43s-.08,1.7-.08,2.66c0,.56,0,1.1.07,1.62a8.59,8.59,0,0,0,.26,1.44H417l-.55-1.76h-.22a5.09,5.09,0,0,1-.6.67,3.79,3.79,0,0,1-.83.61,6.08,6.08,0,0,1-1.12.44,5.69,5.69,0,0,1-1.44.17,4.54,4.54,0,0,1-1.5-.23,3.55,3.55,0,0,1-1.18-.65,3,3,0,0,1-.78-1,3.19,3.19,0,0,1-.29-1.36,3.4,3.4,0,0,1,.43-1.72,3.75,3.75,0,0,1,1.12-1.19,4.84,4.84,0,0,1,1.55-.68,6.9,6.9,0,0,1,1.73-.22l1.16,0c.31,0,.58,0,.79.06l.54.06.4.06c0-.22,0-.41.06-.58a5.35,5.35,0,0,0,0-.61,3.47,3.47,0,0,0-.13-1,1.42,1.42,0,0,0-.43-.67,1.86,1.86,0,0,0-.8-.37,6.27,6.27,0,0,0-1.24-.1,7.85,7.85,0,0,0-.92.06,9.13,9.13,0,0,0-1,.19,9.49,9.49,0,0,0-1,.3,6.83,6.83,0,0,0-.89.37Zm6.9,5.6-.37-.06a3,3,0,0,0-.5-.07l-.7,0q-.4,0-1,0a4.19,4.19,0,0,0-2.16.49,1.77,1.77,0,0,0-.79,1.65,1.49,1.49,0,0,0,.62,1.32,2.69,2.69,0,0,0,1.61.44,4.21,4.21,0,0,0,1.28-.18,4.28,4.28,0,0,0,1-.46,2.58,2.58,0,0,0,.65-.62,3.13,3.13,0,0,0,.39-.67ZM413.34,745h2.29v.51l-2.47,2.8h-1.24Z" transform="translate(-111 -370.37)"/><path class="cls-2" d="M430.44,760.89V754.5a5.17,5.17,0,0,0-.6-2.78,2.3,2.3,0,0,0-2.11-.93,3.49,3.49,0,0,0-2.24.7,3.59,3.59,0,0,0-1.24,1.77v7.63h-2V749.32h1.41l.4,1.54h.19a5.14,5.14,0,0,1,4.12-1.87,6.08,6.08,0,0,1,1.79.23,2.74,2.74,0,0,1,1.29.81,3.79,3.79,0,0,1,.78,1.57,9.52,9.52,0,0,1,.27,2.48v6.81Z" transform="translate(-111 -370.37)"/><path class="cls-2" d="M453.69,754.52h-6.18v6.37h-3.26V745.46h3.26v6.19h6.18v-6.19H457v15.43h-3.26Z" transform="translate(-111 -370.37)"/><path class="cls-2" d="M468.91,745.46H472v9.89a7.1,7.1,0,0,1-.43,2.61,4.73,4.73,0,0,1-1.21,1.8,5,5,0,0,1-1.88,1,7.84,7.84,0,0,1-2.39.34,7.28,7.28,0,0,1-4.74-1.35,5,5,0,0,1-1.63-4.07V745.46H463v9.67a3.18,3.18,0,0,0,.77,2.46,3.29,3.29,0,0,0,2.29.7,2.87,2.87,0,0,0,2.16-.74,3.43,3.43,0,0,0,.7-2.42Z" transform="translate(-111 -370.37)"/><path class="cls-2" d="M478.94,752.84l-1.32-2.31h-.11l.35,2.34v8h-3.08V745.35h2.36l6.36,8.22,1.26,2.25h.13l-.35-2.27v-8.09h3.09V761h-2.36Z" transform="translate(-111 -370.37)"/><path class="cls-2" d="M496.35,752.78h6.31v6.92a5.45,5.45,0,0,1-1.12.67,8.7,8.7,0,0,1-1.27.46,9.12,9.12,0,0,1-1.38.28,10.93,10.93,0,0,1-1.39.09,9.14,9.14,0,0,1-3-.47,6.49,6.49,0,0,1-2.41-1.44,6.88,6.88,0,0,1-1.61-2.5,10.11,10.11,0,0,1-.58-3.62,8.83,8.83,0,0,1,.71-3.71,6.92,6.92,0,0,1,1.84-2.49,7.13,7.13,0,0,1,2.53-1.39,9.32,9.32,0,0,1,2.79-.43,13.49,13.49,0,0,1,2.52.21,15.61,15.61,0,0,1,1.71.41l-.68,2.71a10.27,10.27,0,0,0-1.35-.33,10.85,10.85,0,0,0-1.87-.13,6.37,6.37,0,0,0-1.9.27,3.94,3.94,0,0,0-1.5.89,4.31,4.31,0,0,0-1,1.61,7.39,7.39,0,0,0-.35,2.41,6.93,6.93,0,0,0,.35,2.33,4.58,4.58,0,0,0,1,1.6,3.65,3.65,0,0,0,1.4.91,4.71,4.71,0,0,0,1.68.29,5.58,5.58,0,0,0,1.2-.13,3,3,0,0,0,1-.42v-2.67l-3.66-.35Z" transform="translate(-111 -370.37)"/><path class="cls-2" d="M513.35,757.6h-5.2l-1.26,3.29h-3.26l6-15.54h2.4l6.06,15.54h-3.46Zm-4.3-2.58h3.53l-1.2-3.21-.52-2.45h-.11l-.53,2.47Z" transform="translate(-111 -370.37)"/><path class="cls-2" d="M519.56,745.61l1.16-.16c.42-.05.84-.09,1.27-.12l1.24-.07,1.11,0a13.68,13.68,0,0,1,2.31.2,6.59,6.59,0,0,1,2,.68,4,4,0,0,1,1.45,1.33,3.83,3.83,0,0,1,.55,2.13,5,5,0,0,1-.94,3.12,4.57,4.57,0,0,1-2.59,1.66l1.17.69,3.86,5.84h-3.79l-3.84-6-1.72-.26v6.24h-3.26Zm5,2.49-1,0a3.78,3.78,0,0,0-.76.07v4.26h1.39a3.94,3.94,0,0,0,2.19-.53,2,2,0,0,0,.81-1.83,1.74,1.74,0,0,0-.68-1.48A3.26,3.26,0,0,0,524.56,748.1Z" transform="translate(-111 -370.37)"/><path class="cls-2" d="M536.53,755.2,531,745.46h3.88l3.09,5.66.35,1.66h.11l.37-1.7,3-5.62h3.5l-5.51,9.72v5.71h-3.26Z" transform="translate(-111 -370.37)"/><path class="cls-3" d="M329.28,566.61s53.54-34.56,67.77-30.49c.61.17,3.46,2.83,12.87,8.36,4,2.34,20.78,2.26,20.78,2.26l86.29,45,49.63,12.89a157.87,157.87,0,1,0-291.43-37.91C276.57,572.22,329.28,566.61,329.28,566.61Z" transform="translate(-111 -370.37)"/><path class="cls-2" d="M378.66,429.14v34.31H414V429.14ZM405,438.8H387.59l.05-4.84h17.45Z" transform="translate(-111 -370.37)"/><polygon class="cls-2" points="413.15 125.58 412.95 114.25 392.75 112.17 392.75 101.09 377.19 101.09 377.19 122.73 381.74 122.73 413.15 125.58"/><polygon class="cls-1" points="394.8 101.42 375.31 101.42 381 96.08 385.05 88.04 388.95 96.09 394.8 101.42"/><polygon class="cls-1" points="285.39 41.59 263.8 60.1 306.97 60.13 285.39 41.59"/><path class="cls-4" d="M438,543.57s30.75-36.78,32.31-37.65,17.51-14,17.51-14l6.49-.74s8.39-.51,9.32-.51,20.48,5,20.48,5L562.74,508s19.62,12,20.55,12.88S610,535.29,610,535.29l33.54,34.56,31.18,26.43-58.75,3.23-59.57,5.07Z" transform="translate(-111 -370.37)"/><path class="cls-5" d="M234.53,564.65l53.78-36.78s45.43-49.83,47.87-50.8,32.73-22.48,32.73-22.48l20-10.74s15.63,18.07,17.1,18.07,11.23.49,11.23.49L432.42,478s34.19,26.38,35.66,27.36,46.4,24.91,46.4,24.91L569.19,542l92.64,66.09-88.72-16.67s-63.86-4.73-63.64-5.63c.49-2-81.1-46-81.1-46l-40.65-11.53-90.81,45.81-20.57-3.28Z" transform="translate(-111 -370.37)"/><path class="cls-6" d="M517.09,578.22l-86.29-45S414,533.35,410,531c-9.41-5.53-12.27-8.19-12.88-8.36-14.23-4.07-67.76,30.49-67.76,30.49l-53,17.66s1.49,5.36,2.34,8A158,158,0,0,0,429,688.23c65.41,0,120.15-40.1,144.12-96.77ZM396.31,550.08a8.19,8.19,0,1,1-11,3.7A8.19,8.19,0,0,1,396.31,550.08ZM374,545.28c8-6,14.64.05,13,3.33-2.63,5.13-10.49,7-14.34,5.9-3.61-1-9.59-3.83-9.94-9.19C362.51,542.43,366,551.31,374,545.28Zm-23.57,26.45s10.74-9.66,13.14-10.45,16.61,2.24,19.72,3.08a15,15,0,0,1,7.3,4.86c2,2.25,7.64,19.21,7.64,19.21l9.23-4.55s3.22-1.48,4.6,1.43a3.41,3.41,0,0,1-.44,3.94s-15.52,7.24-17.33,6.6-8.1-15.83-8.1-15.83l-5.59,7.92-12.34-4.54,7.89-12.91-11.48-2.39-9.32,7.78a3.53,3.53,0,0,1-3.79-.18C349.88,574.31,350.45,571.73,350.45,571.73ZM345.8,647a125.13,125.13,0,0,1-21.46-7.56l2.09-5.94a150.39,150.39,0,0,0,21.46,7.56Zm12.61,1.56-.57-6.27a175.07,175.07,0,0,0,22.66-2l.57,6.27A127.83,127.83,0,0,1,358.41,648.57Zm26.74-14.64a5.63,5.63,0,0,1-4.24-3.47l3-20.31-12.45-12.48s-8,9.11-10,9.58-24.64-3.47-24.64-3.47-3.57-1.09-3.27-4.61c.24-2.78,4.68-3.5,4.68-3.5l19.35,3,9.06-12.86L379,590.21s14,14.62,13.76,17.81-3.19,23.73-3.19,23.73A4.17,4.17,0,0,1,385.15,633.93Zm8.14,10.19L391.82,638l22.12-5.33,1.47,6.13Zm33.78-8.4-1.67-6.08,22-6,1.67,6.07ZM460,626.89l-1.29-6.17A206.22,206.22,0,0,1,481,616.07l.46,6.28A159.33,159.33,0,0,0,460,626.89Zm58.92,6.23H486.37V600.59H518.9ZM523.39,623l.88-6.11a88.5,88.5,0,0,1,20,10.21l-3.76,4.87A52.18,52.18,0,0,0,523.39,623Z" transform="translate(-111 -370.37)"/><polygon class="cls-2" points="176.34 159.74 176.57 120.85 195.67 120.61 211.85 112.53 210.9 155.15 176.34 159.74"/><polygon class="cls-1" points="265.26 103.19 264.95 122.08 250.58 131.6 248.89 143.27 211.02 155.05 211.85 112.53 242.77 104.73 265.26 103.19"/><polygon class="cls-1" points="344.1 118.66 319.22 107.64 319.83 126.72 344.7 125.69 344.1 118.66"/><polygon class="cls-2" points="265.26 103.19 319.22 107.64 319.95 126.72 264.95 122.08 265.26 103.19"/><polygon class="cls-7" points="378.88 233.43 404.39 259.54 378.88 259.54 378.88 233.43"/><text class="cls-8" transform="translate(217.44 434.28) scale(0.77 1)">19-22 June </text><text x="-111" y="-370.37"/></svg>