<svg id="Layer_1" data-name="Layer 1" xmlns="http://www.w3.org/2000/svg" xmlns:xlink="http://www.w3.org/1999/xlink" viewBox="0 0 1024 256"><defs><style>.cls-1,.cls-10,.cls-11,.cls-12,.cls-13{fill:none;}.cls-2{clip-path:url(#clip-path);}.cls-3{fill:#94d6da;}.cls-4{fill:#506a6b;}.cls-5{fill:#2f4a4e;}.cls-6{fill:#3d813f;}.cls-7{fill:#6aa744;}.cls-8{fill:#a5cf4c;}.cls-9{fill:#ed1c24;}.cls-10,.cls-11,.cls-12,.cls-13{stroke:#516b6b;stroke-width:3px;}.cls-10{stroke-dasharray:9.08 6.08;}.cls-11{stroke-dasharray:9.15 6.14;}.cls-12{stroke-dasharray:9.15 6.15;}.cls-14,.cls-17,.cls-18{font-size:25px;}.cls-14{fill:#516b6b;}.cls-14,.cls-18{font-family:PTSans-Regular, PT Sans;}.cls-15{letter-spacing:-0.03em;}.cls-16{letter-spacing:-0.09em;}.cls-17,.cls-18{fill:#2e4a4e;}.cls-17{font-family:PTSans-Bold, PT Sans;font-weight:700;}</style><clipPath id="clip-path"><rect class="cls-1" x="34" y="27.37" width="1006.03" height="198.63"/></clipPath></defs><title>Artboard 1</title><g class="cls-2"><path class="cls-3" d="M81.28,125.29S108,108,115.09,110.07c.31.09,1.73,1.41,6.43,4.17,2,1.17,10.37,1.13,10.37,1.13l43.05,22.43,24.77,6.43A78.77,78.77,0,1,0,54.29,125.32c.69,2.76,27,0,27,0"/></g><path class="cls-4" d="M119.08,61.51h-8.7l0-2.41h8.71Zm-13.16,12.3h17.62V56.69H105.92Z"/><polygon class="cls-4" points="178.51 90.03 178.41 84.38 168.34 83.34 168.34 77.81 160.57 77.81 160.57 88.61 162.84 88.61 178.51 90.03"/><polygon class="cls-5" points="169.36 77.97 159.63 77.97 162.47 75.31 164.5 71.3 166.44 75.32 169.36 77.97"/><polygon class="cls-5" points="114.77 48.12 103.99 57.36 125.53 57.37 114.77 48.12"/><g class="cls-2"><path class="cls-6" d="M135.55,113.79S150.89,95.44,151.67,95s8.74-7,8.74-7l3.24-.37s4.18-.25,4.65-.25,10.21,2.5,10.21,2.5L197.77,96s9.79,6,10.26,6.42,13.3,7.22,13.3,7.22l16.73,17.24,15.56,13.19-29.31,1.61-29.73,2.53Z"/><path class="cls-7" d="M34,124.31,60.84,106S83.51,81.09,84.72,80.61s16.33-11.22,16.33-11.22l10-5.36s7.8,9,8.53,9,5.6.24,5.6.24l7.56,7.8s17.06,13.16,17.8,13.65,23.15,12.43,23.15,12.43L201,113l46.22,33-44.27-8.31s-31.86-2.37-31.75-2.82c.25-1-40.47-23-40.47-23l-20.28-5.76L65.13,129l-10.27-1.63Z"/><path class="cls-8" d="M178.14,153.41l.43-3a44,44,0,0,1,10,5.1l-1.88,2.42a26,26,0,0,0-8.55-4.47m-2.24,5.06H159.67V142.24H175.9Zm-29.4-3.11-.65-3.07A102,102,0,0,1,157,150l.23,3.14a79,79,0,0,0-10.7,2.26m-16.42,4.41-.84-3,10.95-3,.83,3ZM113.22,164l-.74-3.06,11-2.65.74,3.05Zm-4.06-5.08a2.81,2.81,0,0,1-2.12-1.73L108.52,147l-6.21-6.23s-4,4.55-5,4.79S85,143.83,85,143.83a2.29,2.29,0,0,1-1.63-2.3c.12-1.38,2.34-1.75,2.34-1.75l9.65,1.51,4.52-6.42,6.16,2.19s7,7.3,6.87,8.89-1.59,11.84-1.59,11.84a2.09,2.09,0,0,1-2.2,1.09m-13.35,7.3-.28-3.13a87.23,87.23,0,0,0,11.31-1l.28,3.13a64.24,64.24,0,0,1-11.31,1m-6.29-.78a62.15,62.15,0,0,1-10.71-3.77l1-3a74.68,74.68,0,0,0,10.71,3.77Zm2.33-37.56s5.35-4.82,6.55-5.21,8.29,1.11,9.84,1.53a7.45,7.45,0,0,1,3.64,2.43c1,1.12,3.81,9.58,3.81,9.58l4.61-2.27a1.7,1.7,0,0,1,2.29.72,1.68,1.68,0,0,1-.21,2s-7.75,3.61-8.65,3.29-4-7.89-4-7.89l-2.79,4-6.16-2.27,3.94-6.44L99,126l-4.65,3.88a1.75,1.75,0,0,1-1.89-.09,2.15,2.15,0,0,1-.56-2m11.75-13.2c4-3,7.31,0,6.47,1.66-1.31,2.56-5.23,3.48-7.16,3s-4.78-1.91-5-4.59c-.1-1.44,1.64,3,5.64,0m11.13,2.4a4.09,4.09,0,1,1-5.48,1.84,4.07,4.07,0,0,1,5.48-1.84m60.26,14-43.05-22.43s-8.38,0-10.37-1.13c-4.7-2.76-6.12-4.08-6.43-4.17-7.1-2-33.81,15.22-33.81,15.22l-26.47,8.81s.75,2.67,1.17,4A78.83,78.83,0,0,0,131,186c32.64,0,59.95-20,71.91-48.28Z"/></g><polygon class="cls-4" points="60.35 107.08 60.47 87.67 70 87.55 78.07 83.52 77.6 104.79 60.35 107.08"/><polygon class="cls-5" points="104.72 78.86 104.57 88.28 97.4 93.04 96.55 98.86 77.66 104.74 78.07 83.52 93.5 79.63 104.72 78.86"/><polygon class="cls-5" points="144.06 86.58 131.65 81.08 131.95 90.6 144.36 90.09 144.06 86.58"/><polygon class="cls-4" points="104.72 78.86 131.65 81.08 132.01 90.6 104.57 88.28 104.72 78.86"/><polygon class="cls-9" points="161.41 143.85 174.14 156.87 161.41 156.87 161.41 143.85"/><polygon class="cls-5" points="76.08 196.17 86.56 196.17 86.56 199.19 79.52 199.19 79.52 202.72 85.91 202.72 85.91 205.75 79.52 205.75 79.52 209.42 86.68 209.42 86.68 212.44 76.08 212.44 76.08 196.17"/><polygon class="cls-5" points="93.49 206.44 87.68 196.17 91.77 196.17 95.02 202.14 95.39 203.89 95.51 203.89 95.91 202.1 99.04 196.17 102.74 196.17 96.93 206.42 96.93 212.44 93.49 212.44 93.49 206.44"/><g class="cls-2"><path class="cls-5" d="M106.06,204.3a9.41,9.41,0,0,0,.24,2.21,5.25,5.25,0,0,0,.69,1.72,3.22,3.22,0,0,0,1.2,1.12,3.65,3.65,0,0,0,1.73.39,3.46,3.46,0,0,0,2.86-1.25,6.71,6.71,0,0,0,1-4.19,10.55,10.55,0,0,0-.21-2.16,4.86,4.86,0,0,0-.68-1.73,3.38,3.38,0,0,0-1.21-1.14,3.63,3.63,0,0,0-1.78-.4,3.38,3.38,0,0,0-2.83,1.3,6.63,6.63,0,0,0-1,4.13m-3.65,0a11.27,11.27,0,0,1,.52-3.57,7.33,7.33,0,0,1,1.47-2.67,6.3,6.3,0,0,1,2.36-1.65,8.28,8.28,0,0,1,3.16-.57,8.15,8.15,0,0,1,3.29.62,6.4,6.4,0,0,1,2.35,1.73,7.6,7.6,0,0,1,1.42,2.67,12,12,0,0,1,.47,3.44,11.29,11.29,0,0,1-.52,3.58,7.37,7.37,0,0,1-1.5,2.67,6.41,6.41,0,0,1-2.37,1.65,9,9,0,0,1-6.43,0,6.4,6.4,0,0,1-2.35-1.73,7.52,7.52,0,0,1-1.4-2.68,11.92,11.92,0,0,1-.47-3.44"/><path class="cls-5" d="M131.84,211.74a5.14,5.14,0,0,1-2,.78,13,13,0,0,1-2.58.25,9.64,9.64,0,0,1-3-.47,6.63,6.63,0,0,1-2.53-1.49,7.2,7.2,0,0,1-1.76-2.62,10.45,10.45,0,0,1-.65-3.89,9.42,9.42,0,0,1,.75-4,7.1,7.1,0,0,1,4.48-4,9.24,9.24,0,0,1,2.79-.45,15.1,15.1,0,0,1,2.55.19,9.54,9.54,0,0,1,1.71.44l-.68,2.88a5.48,5.48,0,0,0-1.36-.37,13.4,13.4,0,0,0-2-.11,5.23,5.23,0,0,0-1.9.33,3.88,3.88,0,0,0-1.45,1,4.72,4.72,0,0,0-.94,1.7,7.49,7.49,0,0,0-.34,2.39,7.62,7.62,0,0,0,.3,2.21,5,5,0,0,0,.91,1.72,4,4,0,0,0,1.54,1.12,5.55,5.55,0,0,0,2.16.39,7.08,7.08,0,0,0,1.92-.21,5.92,5.92,0,0,0,1.38-.53Z"/><path class="cls-5" d="M146.75,200a6.76,6.76,0,0,1-.49,2.44,15.33,15.33,0,0,1-1.27,2.48,27.09,27.09,0,0,1-1.75,2.45c-.64.82-1.29,1.6-1.94,2.35l-1.26,1v.09l1.68-.25h5.42v1.91H136.88v-.82c.37-.35.81-.8,1.33-1.32s1-1.09,1.62-1.72,1.12-1.3,1.66-2a20.4,20.4,0,0,0,1.47-2.14,14.53,14.53,0,0,0,1-2.14,5.41,5.41,0,0,0,.41-2,2.57,2.57,0,0,0-.67-1.83,2.69,2.69,0,0,0-2.06-.73,4.64,4.64,0,0,0-1.87.39,6,6,0,0,0-1.55.94l-1-1.56a7.89,7.89,0,0,1,2.16-1.22,7.65,7.65,0,0,1,2.68-.46,4.78,4.78,0,0,1,3.38,1.13,3.93,3.93,0,0,1,1.21,3"/><path class="cls-5" d="M152.54,204.29a15.36,15.36,0,0,0,.21,2.64,8.13,8.13,0,0,0,.63,2.1,3.72,3.72,0,0,0,1.1,1.4,2.72,2.72,0,0,0,1.63.5,2.88,2.88,0,0,0,2.72-1.64,11.25,11.25,0,0,0,.86-5,17.82,17.82,0,0,0-.18-2.63,7.77,7.77,0,0,0-.61-2.1,3.68,3.68,0,0,0-1.12-1.4,2.8,2.8,0,0,0-1.67-.5,2.86,2.86,0,0,0-2.72,1.66,11.42,11.42,0,0,0-.85,5m-2.32,0a11,11,0,0,1,1.49-6.26,5.62,5.62,0,0,1,8.89,0,11.54,11.54,0,0,1,1.42,6.28,11,11,0,0,1-1.52,6.26,5,5,0,0,1-4.42,2.19,5.48,5.48,0,0,1-2.64-.6,5,5,0,0,1-1.82-1.71,8.52,8.52,0,0,1-1.06-2.67,16.07,16.07,0,0,1-.34-3.47"/><path class="cls-5" d="M174.4,200a6.55,6.55,0,0,1-.49,2.44,14.56,14.56,0,0,1-1.27,2.48,29.06,29.06,0,0,1-1.74,2.45c-.65.82-1.3,1.6-2,2.35l-1.25,1v.09l1.67-.25h5.43v1.91H164.53v-.82c.37-.35.82-.8,1.33-1.32s1.06-1.09,1.62-1.72,1.12-1.3,1.67-2a24,24,0,0,0,1.47-2.14,14.53,14.53,0,0,0,1-2.14,5.59,5.59,0,0,0,.4-2,2.57,2.57,0,0,0-.67-1.83,2.69,2.69,0,0,0-2.06-.73,4.68,4.68,0,0,0-1.87.39,6,6,0,0,0-1.55.94l-.95-1.56a7.8,7.8,0,0,1,2.17-1.22,7.59,7.59,0,0,1,2.67-.46,4.78,4.78,0,0,1,3.38,1.13,3.9,3.9,0,0,1,1.21,3"/><path class="cls-5" d="M180.2,204.29a16.48,16.48,0,0,0,.2,2.64A7.75,7.75,0,0,0,181,209a3.72,3.72,0,0,0,1.1,1.4,2.67,2.67,0,0,0,1.62.5,2.87,2.87,0,0,0,2.72-1.64,11.11,11.11,0,0,0,.86-5,17.82,17.82,0,0,0-.18-2.63,7.43,7.43,0,0,0-.61-2.1,3.57,3.57,0,0,0-1.11-1.4,2.81,2.81,0,0,0-1.68-.5,2.85,2.85,0,0,0-2.71,1.66,11.27,11.27,0,0,0-.85,5m-2.33,0a11.11,11.11,0,0,1,1.49-6.26,5.62,5.62,0,0,1,8.89,0,11.45,11.45,0,0,1,1.42,6.28,11,11,0,0,1-1.51,6.26,5,5,0,0,1-4.42,2.19,5.49,5.49,0,0,1-2.65-.6,4.93,4.93,0,0,1-1.81-1.71,8.06,8.06,0,0,1-1.06-2.67,16,16,0,0,1-.35-3.47"/><path class="cls-4" d="M80.29,221.79a.85.85,0,0,0-.28-.68,2.72,2.72,0,0,0-.73-.44c-.29-.12-.6-.24-.93-.35a4.71,4.71,0,0,1-.94-.42,2.42,2.42,0,0,1-.73-.66,1.8,1.8,0,0,1-.28-1.06,1.82,1.82,0,0,1,.66-1.46,3,3,0,0,1,1.9-.55,7.45,7.45,0,0,1,1.31.11,3.7,3.7,0,0,1,.94.27l-.33.9a3.22,3.22,0,0,0-.8-.24,6,6,0,0,0-1.17-.1,1.71,1.71,0,0,0-1.09.3.92.92,0,0,0-.36.71.87.87,0,0,0,.29.67,3.06,3.06,0,0,0,.72.44c.29.13.61.26.94.38a5.08,5.08,0,0,1,.94.45,2.5,2.5,0,0,1,.72.65,1.65,1.65,0,0,1,.29,1,2,2,0,0,1-.19.9,2.09,2.09,0,0,1-.56.7,2.74,2.74,0,0,1-.87.44,4.13,4.13,0,0,1-1.16.15,7,7,0,0,1-1.48-.13,4.54,4.54,0,0,1-.91-.28l.36-.93a3.82,3.82,0,0,0,.8.27,4.88,4.88,0,0,0,1.19.13,3.69,3.69,0,0,0,.69-.06,1.87,1.87,0,0,0,.56-.22,1,1,0,0,0,.5-.89"/><path class="cls-4" d="M86.08,221.23l-.18,0a.88.88,0,0,0-.24,0l-.34,0h-.48a2,2,0,0,0-1,.24.85.85,0,0,0-.39.8.7.7,0,0,0,.31.63,1.23,1.23,0,0,0,.77.22,2,2,0,0,0,.62-.09,1.8,1.8,0,0,0,.46-.23,1,1,0,0,0,.32-.29,1.86,1.86,0,0,0,.19-.33Zm-3.34-2.71a5.58,5.58,0,0,1,2.38-.45,2.72,2.72,0,0,1,1,.16,1.61,1.61,0,0,1,.6.42,1.38,1.38,0,0,1,.28.57,2.7,2.7,0,0,1,.07.63c0,.39,0,.78,0,1.17s0,.82,0,1.28c0,.27,0,.54,0,.79a6.15,6.15,0,0,0,.12.69h-.71l-.27-.85h-.1a2.86,2.86,0,0,1-.29.33,1.71,1.71,0,0,1-.4.29,2.17,2.17,0,0,1-.54.21,2.53,2.53,0,0,1-.7.09,2.36,2.36,0,0,1-.72-.11,1.76,1.76,0,0,1-.57-.32,1.41,1.41,0,0,1-.38-.49,1.69,1.69,0,0,1,.07-1.49,1.81,1.81,0,0,1,.53-.57,2.47,2.47,0,0,1,.76-.33,3.38,3.38,0,0,1,.83-.11h.56l.38,0,.26,0,.2,0c0-.11,0-.2,0-.28a2.63,2.63,0,0,0,0-.3,1.8,1.8,0,0,0-.06-.5.81.81,0,0,0-.21-.32.88.88,0,0,0-.39-.18,3.28,3.28,0,0,0-.6,0l-.44,0a3.86,3.86,0,0,0-.49.09l-.49.14-.43.18Z"/><path class="cls-4" d="M90.11,222.28a.92.92,0,0,0,.17.62.56.56,0,0,0,.44.18,1.83,1.83,0,0,0,.33,0,2.37,2.37,0,0,0,.38-.08l.13.72-.26.08-.3.07-.32.05h-.29a1.39,1.39,0,0,1-.92-.29,1.25,1.25,0,0,1-.34-1v-6.34h1Z"/><path class="cls-4" d="M94.87,223a1.44,1.44,0,0,0,1-.33,1.68,1.68,0,0,0,.5-.86V219a3.7,3.7,0,0,0-.56-.11,5,5,0,0,0-.71-.05,1.64,1.64,0,0,0-1.29.53,2.38,2.38,0,0,0-.46,1.61,2.57,2.57,0,0,0,.34,1.45,1.32,1.32,0,0,0,1.18.51m2.49.85a2,2,0,0,1-.64,1.63,2.88,2.88,0,0,1-1.89.54,6.17,6.17,0,0,1-1.17-.09,2.92,2.92,0,0,1-.77-.23l.23-.89.32.14.39.12c.13,0,.27.06.4.09l.4,0a3.38,3.38,0,0,0,.86-.09,1.16,1.16,0,0,0,.54-.29.92.92,0,0,0,.28-.49,2.88,2.88,0,0,0,.07-.71v-.39h-.11a1.19,1.19,0,0,1-.6.44,2.61,2.61,0,0,1-1,.17,2.22,2.22,0,0,1-1.78-.65,3.19,3.19,0,0,1-.58-2.11A3.07,3.07,0,0,1,93,218.8a2.92,2.92,0,0,1,2.21-.78,7,7,0,0,1,1.21.09,6.4,6.4,0,0,1,.91.22Z"/><path class="cls-4" d="M101.78,216.1h1.11v.24l-1.19,1.35h-.6ZM100,221a3.39,3.39,0,0,0,.08.78,2.13,2.13,0,0,0,.29.67,1.59,1.59,0,0,0,.52.48,1.55,1.55,0,0,0,.78.18c1.09,0,1.64-.7,1.64-2.11a3.57,3.57,0,0,0-.09-.8,2,2,0,0,0-.29-.67,1.56,1.56,0,0,0-.51-.48,1.49,1.49,0,0,0-.75-.18,1.53,1.53,0,0,0-1.25.53A2.55,2.55,0,0,0,100,221M99,221a4,4,0,0,1,.18-1.24,2.66,2.66,0,0,1,.53-.93,2.34,2.34,0,0,1,.86-.58,3,3,0,0,1,1.16-.21,2.94,2.94,0,0,1,1.19.23,2.31,2.31,0,0,1,.85.62,2.6,2.6,0,0,1,.51.94,4,4,0,0,1,.16,1.17,3.88,3.88,0,0,1-.18,1.23,2.7,2.7,0,0,1-.54.92,2.14,2.14,0,0,1-.85.59,3.17,3.17,0,0,1-1.14.2,3,3,0,0,1-1.22-.22,2.3,2.3,0,0,1-.84-.62,2.46,2.46,0,0,1-.5-.93A4,4,0,0,1,99,221"/><path class="cls-4" d="M105.3,218.17h.94V217l1-.25v1.38h1.69V219h-1.69v2.86a1.93,1.93,0,0,0,.17.94.63.63,0,0,0,.59.28,1.75,1.75,0,0,0,.48-.06l.5-.15.22.69a4.8,4.8,0,0,1-.73.25,3.15,3.15,0,0,1-.83.1,1.26,1.26,0,0,1-1.06-.4,2.17,2.17,0,0,1-.32-1.32V219h-.94Z"/><path class="cls-4" d="M113.56,221.23l-.18,0a.78.78,0,0,0-.24,0l-.34,0h-.48a2,2,0,0,0-1,.24.86.86,0,0,0-.38.8.72.72,0,0,0,.3.63,1.26,1.26,0,0,0,.78.22,1.91,1.91,0,0,0,.61-.09,1.87,1.87,0,0,0,.47-.23,1.08,1.08,0,0,0,.31-.29,1.12,1.12,0,0,0,.19-.33Zm-3.33-2.71a5.57,5.57,0,0,1,2.37-.45,2.68,2.68,0,0,1,1,.16,1.53,1.53,0,0,1,.6.42,1.27,1.27,0,0,1,.28.57,2.7,2.7,0,0,1,.07.63c0,.39,0,.78,0,1.17s0,.82,0,1.28c0,.27,0,.54,0,.79a4.46,4.46,0,0,0,.13.69h-.72l-.26-.85h-.11a2.14,2.14,0,0,1-.29.33,1.71,1.71,0,0,1-.4.29,2.17,2.17,0,0,1-.54.21,2.43,2.43,0,0,1-.7.09,2.36,2.36,0,0,1-.72-.11,1.76,1.76,0,0,1-.57-.32,1.41,1.41,0,0,1-.38-.49,1.69,1.69,0,0,1,.07-1.49,1.84,1.84,0,0,1,.54-.57,2.32,2.32,0,0,1,.75-.33,3.44,3.44,0,0,1,.83-.11h.56l.39,0,.26,0,.19,0c0-.11,0-.2,0-.28a2.63,2.63,0,0,0,0-.3,1.8,1.8,0,0,0-.06-.5.64.64,0,0,0-.21-.32.83.83,0,0,0-.39-.18,3.25,3.25,0,0,0-.59,0l-.45,0a4.21,4.21,0,0,0-.49.09l-.49.14-.43.18Z"/><path class="cls-4" d="M119.41,219.1l-.36-.08a1.22,1.22,0,0,0-.32,0,1.25,1.25,0,0,0-.87.29,1.22,1.22,0,0,0-.39.72v3.77h-1v-5.59h.68l.19.75h.1a2,2,0,0,1,.57-.65,1.36,1.36,0,0,1,.81-.23l.35,0a3,3,0,0,1,.41.09Z"/><path class="cls-4" d="M120.57,216.84a.61.61,0,0,1,.19-.44.67.67,0,0,1,.5-.2.73.73,0,0,1,.51.2.62.62,0,0,1,.2.44.57.57,0,0,1-.2.43.72.72,0,0,1-.51.19.66.66,0,0,1-.5-.19.56.56,0,0,1-.19-.43m.22,1.33h1V224a2.48,2.48,0,0,1-.39,1.53,1.48,1.48,0,0,1-1.25.51h-.19l-.22,0v-.81a1.11,1.11,0,0,0,.56-.09.65.65,0,0,0,.32-.29,1.13,1.13,0,0,0,.15-.49,4.72,4.72,0,0,0,0-.7Z"/><path class="cls-4" d="M125.76,216.1h1.11v.24l-1.19,1.35h-.6Zm1.37,5.13-.18,0a.88.88,0,0,0-.24,0l-.34,0h-.48a2,2,0,0,0-1,.24.85.85,0,0,0-.39.8.72.72,0,0,0,.3.63,1.28,1.28,0,0,0,.78.22,2,2,0,0,0,.62-.09,1.8,1.8,0,0,0,.46-.23,1.12,1.12,0,0,0,.32-.29,1.86,1.86,0,0,0,.19-.33Zm-3.34-2.71a5.58,5.58,0,0,1,2.38-.45,2.63,2.63,0,0,1,1,.16,1.65,1.65,0,0,1,.61.42,1.38,1.38,0,0,1,.28.57,3.38,3.38,0,0,1,.07.63c0,.39,0,.78,0,1.17s-.05.82-.05,1.28a6.74,6.74,0,0,0,0,.79,4.49,4.49,0,0,0,.12.69h-.71l-.27-.85h-.1a2.86,2.86,0,0,1-.29.33,1.58,1.58,0,0,1-.41.29,2,2,0,0,1-.53.21,2.53,2.53,0,0,1-.7.09,2.43,2.43,0,0,1-.73-.11,1.61,1.61,0,0,1-.56-.32,1.41,1.41,0,0,1-.38-.49,1.45,1.45,0,0,1-.14-.66,1.6,1.6,0,0,1,.21-.83,1.7,1.7,0,0,1,.53-.57,2.32,2.32,0,0,1,.75-.33,3.52,3.52,0,0,1,.84-.11h.56l.38,0,.26,0,.2,0c0-.11,0-.2,0-.28s0-.18,0-.3a1.47,1.47,0,0,0-.07-.5.7.7,0,0,0-.2-.32.88.88,0,0,0-.39-.18,3.37,3.37,0,0,0-.6,0l-.45,0L125,219l-.48.14-.43.18Z"/><path class="cls-4" d="M134,223.76v-3.08a2.55,2.55,0,0,0-.29-1.35,1.14,1.14,0,0,0-1-.44,1.75,1.75,0,0,0-1.09.33,1.87,1.87,0,0,0-.6.86v3.68h-1v-5.59h.69l.19.75H131a2.64,2.64,0,0,1,.81-.65A2.54,2.54,0,0,1,133,218a3.23,3.23,0,0,1,.87.11,1.42,1.42,0,0,1,.62.4,1.87,1.87,0,0,1,.38.76,4.9,4.9,0,0,1,.12,1.19v3.29Z"/></g><polygon class="cls-4" points="145.26 220.69 142.28 220.69 142.28 223.76 140.7 223.76 140.7 216.31 142.28 216.31 142.28 219.3 145.26 219.3 145.26 216.31 146.83 216.31 146.83 223.76 145.26 223.76 145.26 220.69"/><g class="cls-2"><path class="cls-4" d="M152.61,216.31h1.5v4.78a3.47,3.47,0,0,1-.21,1.26,2.29,2.29,0,0,1-1.49,1.38,3.87,3.87,0,0,1-1.16.16,3.55,3.55,0,0,1-2.29-.65,2.45,2.45,0,0,1-.79-2v-5h1.58V221a1.54,1.54,0,0,0,.37,1.19,1.64,1.64,0,0,0,1.11.34,1.35,1.35,0,0,0,1-.36,1.65,1.65,0,0,0,.34-1.17Z"/></g><polygon class="cls-4" points="157.46 219.88 156.82 218.76 156.77 218.76 156.94 219.89 156.94 223.76 155.45 223.76 155.45 216.26 156.59 216.26 159.66 220.23 160.27 221.31 160.33 221.31 160.16 220.22 160.16 216.31 161.66 216.31 161.66 223.82 160.52 223.82 157.46 219.88"/><g class="cls-2"><path class="cls-4" d="M165.87,219.85h3v3.34a2.48,2.48,0,0,1-.54.32,4.16,4.16,0,0,1-.62.23,4.81,4.81,0,0,1-.66.13,5.17,5.17,0,0,1-.68,0,4.46,4.46,0,0,1-1.43-.22,3.06,3.06,0,0,1-1.16-.7,3.11,3.11,0,0,1-.77-1.21,4.8,4.8,0,0,1-.29-1.74,4.41,4.41,0,0,1,.34-1.8,3.36,3.36,0,0,1,2.12-1.87,4.51,4.51,0,0,1,1.34-.21,6.26,6.26,0,0,1,1.22.1c.35.07.63.14.83.2l-.33,1.31a3.64,3.64,0,0,0-.65-.16,5.67,5.67,0,0,0-.91-.06,2.94,2.94,0,0,0-.91.13,1.86,1.86,0,0,0-.73.43,2,2,0,0,0-.47.78,3.29,3.29,0,0,0-.18,1.16,3.19,3.19,0,0,0,.18,1.13,2,2,0,0,0,.46.77,1.74,1.74,0,0,0,.67.44,2.46,2.46,0,0,0,.81.14,2.78,2.78,0,0,0,.58-.06,1.42,1.42,0,0,0,.5-.21V221l-1.77-.17Z"/></g><path class="cls-4" d="M172,220.93h1.7l-.58-1.55-.25-1.19h0l-.26,1.2Zm2.07,1.25h-2.51l-.61,1.58h-1.57l2.91-7.5h1.16l2.93,7.5h-1.67Z"/><g class="cls-2"><path class="cls-4" d="M179.5,217.59H179a2.6,2.6,0,0,0-.37,0v2.05h.67a1.91,1.91,0,0,0,1.06-.25,1,1,0,0,0,.39-.88.84.84,0,0,0-.33-.72,1.61,1.61,0,0,0-.95-.24m-2.42-1.21.56-.08.62-.05.6,0h.53a6,6,0,0,1,1.12.1,3.06,3.06,0,0,1,1,.33,1.93,1.93,0,0,1,.69.64,1.86,1.86,0,0,1,.27,1,2.44,2.44,0,0,1-.45,1.51,2.26,2.26,0,0,1-1.25.8l.56.33,1.87,2.82h-1.84l-1.85-2.88-.83-.13v3h-1.58Z"/></g><polygon class="cls-4" points="185.28 221.02 182.62 216.31 184.5 216.31 185.99 219.05 186.16 219.84 186.21 219.84 186.39 219.03 187.83 216.31 189.52 216.31 186.86 221.01 186.86 223.76 185.28 223.76 185.28 221.02"/><g class="cls-2"><path class="cls-10" d="M202.6,164.26c49.67,16.85,192.12,23.79,237.83,22.13"/><path class="cls-11" d="M458.66,184.9c63.31-7,239.55-35.77,315.7-37.69"/><path class="cls-12" d="M792.72,147.42c59.95,3.13,189,28.84,239.65,31.29"/><path class="cls-13" d="M1035.44,178.84c1.63,0,3.15.07,4.58.06M777.43,147.14l4.57,0c1.46,0,3,0,4.57.06m-343.1,39.09c1.68-.08,3.2-.18,4.53-.29s2.93-.26,4.55-.42M192.81,160.17q1.84,1,4.1,2"/><path class="cls-4" d="M698.93,90.78a5.6,5.6,0,1,1-7.5,2.53,5.6,5.6,0,0,1,7.5-2.53"/><path class="cls-4" d="M683.69,87.5c5.48-4.12,10,0,8.87,2.28-1.81,3.51-7.18,4.77-9.81,4-2.47-.69-6.56-2.62-6.8-6.28-.13-2,2.26,4.09,7.74,0"/><path class="cls-4" d="M667.58,105.59s7.34-6.61,9-7.15,11.36,1.54,13.49,2.11a10.18,10.18,0,0,1,5,3.33c1.38,1.53,5.23,13.13,5.23,13.13l6.31-3.11s2.2-1,3.15,1a2.34,2.34,0,0,1-.3,2.7s-10.62,5-11.85,4.51S692,111.26,692,111.26l-3.82,5.42-8.44-3.11,5.39-8.83-7.85-1.63-6.38,5.31a2.39,2.39,0,0,1-2.58-.12,3,3,0,0,1-.77-2.71"/><path class="cls-4" d="M691.3,148.12a3.84,3.84,0,0,1-2.9-2.37l2-13.89-8.51-8.53s-5.46,6.23-6.81,6.55-16.86-2.38-16.86-2.38a3.14,3.14,0,0,1-2.23-3.15c.16-1.9,3.2-2.39,3.2-2.39L672.45,124l6.2-8.8,8.44,3s9.6,10,9.41,12.18-2.19,16.22-2.19,16.22a2.84,2.84,0,0,1-3,1.49"/><path class="cls-5" d="M636,98.27a5.6,5.6,0,1,1-7.51,2.53A5.6,5.6,0,0,1,636,98.27"/><path class="cls-5" d="M604.6,113.07s7.34-6.6,9-7.14,11.35,1.53,13.48,2.1a10.16,10.16,0,0,1,5,3.33c1.38,1.54,5.23,13.13,5.23,13.13l6.31-3.11s2.2-1,3.14,1a2.33,2.33,0,0,1-.3,2.69s-10.61,5-11.85,4.51-5.53-10.82-5.53-10.82l-3.83,5.42-8.44-3.11,5.4-8.83-7.86-1.63L608,115.91a2.41,2.41,0,0,1-2.59-.12,3,3,0,0,1-.77-2.72"/><path class="cls-5" d="M628.33,155.61a3.87,3.87,0,0,1-2.91-2.38l2-13.89L619,130.81s-5.47,6.23-6.82,6.55S595.28,135,595.28,135a3.16,3.16,0,0,1-2.24-3.15c.17-1.9,3.2-2.4,3.2-2.4l13.23,2.07,6.2-8.8,8.45,3s9.59,10,9.4,12.18-2.18,16.23-2.18,16.23a2.85,2.85,0,0,1-3,1.49"/><path class="cls-4" d="M840.9,81.55a6.28,6.28,0,1,1-8.42,2.84,6.27,6.27,0,0,1,8.42-2.84"/><path class="cls-4" d="M805.72,98.16s8.24-7.41,10.08-8,12.74,1.71,15.13,2.35a11.53,11.53,0,0,1,5.6,3.74C838.07,98,842.39,111,842.39,111l7.08-3.5s2.47-1.13,3.53,1.1a2.61,2.61,0,0,1-.33,3s-11.92,5.56-13.3,5.07-6.21-12.14-6.21-12.14l-4.3,6.07-9.47-3.48,6.06-9.91-8.81-1.83-7.16,6a2.68,2.68,0,0,1-2.9-.13,3.33,3.33,0,0,1-.86-3"/><path class="cls-4" d="M832.34,145.89a4.34,4.34,0,0,1-3.26-2.66l2.28-15.59-9.55-9.57s-6.13,7-7.65,7.35-18.91-2.67-18.91-2.67a3.52,3.52,0,0,1-2.5-3.53c.18-2.14,3.59-2.69,3.59-2.69l14.84,2.32,7-9.87,9.47,3.36s10.77,11.22,10.56,13.67-2.45,18.21-2.45,18.21a3.19,3.19,0,0,1-3.38,1.67"/></g><text class="cls-14" transform="translate(265.58 85.48)">European<tspan class="cls-15" x="101.07" y="0"> </tspan><tspan class="cls-16" x="107" y="0">Y</tspan><tspan x="118.82" y="0">outh </tspan></text><text class="cls-17" transform="translate(268.25 115.48)">ORIENTEERING</text><text class="cls-14" transform="translate(430.78 115.48)"> </text><text class="cls-18" transform="translate(268.05 145.48)">Championships</text><text class="cls-14" transform="translate(430.95 145.48)"> </text></svg>